<svg width="150" height="16" viewBox="0 0 150 16" fill="none" xmlns="http://www.w3.org/2000/svg">
<path d="M8.40088 7.08398L10.7285 2.13135C11.1113 1.31104 11.7915 0.900879 12.769 0.900879C14.0542 0.900879 14.8232 1.61865 15.0762 3.0542L16.686 12.0776C16.7339 12.3442 16.7578 12.6074 16.7578 12.8672C16.7578 13.4961 16.5356 14.0259 16.0913 14.4565C15.6538 14.8872 15.1172 15.1025 14.4814 15.1025C13.9141 15.1025 13.4185 14.9453 12.9946 14.6309C12.5708 14.3164 12.3042 13.8857 12.1948 13.3389L11.6821 10.7139L10.7695 13.1953C10.3047 14.4668 9.51514 15.1025 8.40088 15.1025C7.30029 15.1025 6.51758 14.4736 6.05273 13.2158L5.12988 10.7139L4.75049 12.9492C4.64111 13.5986 4.39844 14.1011 4.02246 14.4565C3.57129 14.8872 3.04492 15.1025 2.44336 15.1025C1.61621 15.1025 0.977051 14.7778 0.525879 14.1284C0.245605 13.7251 0.105469 13.2124 0.105469 12.5903C0.105469 12.4058 0.122559 12.2178 0.156738 12.0264L1.73584 3.0542C1.84521 2.42529 2.09131 1.91943 2.47412 1.53662C2.88428 1.11279 3.39697 0.900879 4.01221 0.900879C4.51123 0.900879 4.96924 1.04443 5.38623 1.33154C5.81006 1.61182 6.12451 1.98096 6.32959 2.43896L8.40088 7.08398ZM22.7769 3.76172V12.4468C22.7769 13.1987 22.582 13.8174 22.1924 14.3027C21.7754 14.8359 21.1978 15.1025 20.4595 15.1025C19.7827 15.1025 19.2119 14.853 18.7471 14.354C18.3574 13.937 18.1626 13.3013 18.1626 12.4468V3.76172C18.1626 2.79102 18.3574 2.08691 18.7471 1.64941C19.1914 1.15039 19.7622 0.900879 20.4595 0.900879C21.1567 0.900879 21.7275 1.14697 22.1719 1.63916C22.5752 2.09033 22.7769 2.79785 22.7769 3.76172ZM27.063 7.78125L25.1147 5.18701C24.4995 4.3667 24.1919 3.7002 24.1919 3.1875C24.1919 2.66797 24.3662 2.19629 24.7148 1.77246C25.1865 1.19141 25.7983 0.900879 26.5503 0.900879C27.3091 0.900879 27.9551 1.24951 28.4883 1.94678L29.9854 3.91553L31.3799 2.1416C32.0293 1.31445 32.7129 0.900879 33.4307 0.900879C34.2305 0.900879 34.873 1.23242 35.3584 1.89551C35.6455 2.29199 35.7891 2.71924 35.7891 3.17725C35.7891 3.70361 35.5396 4.29492 35.0405 4.95117L32.8975 7.78125L35.5225 11.2778C35.8574 11.7222 36.0249 12.2314 36.0249 12.8057C36.0249 13.3252 35.8711 13.79 35.5635 14.2002C35.1123 14.8018 34.5107 15.1025 33.7588 15.1025C33 15.1025 32.3711 14.7744 31.8721 14.1182L29.9854 11.6367L28.0884 14.0977C27.5688 14.7676 26.9434 15.1025 26.2119 15.1025C25.5762 15.1025 25.0293 14.8804 24.5713 14.436C24.1201 13.9849 23.8945 13.4414 23.8945 12.8057C23.8945 12.2246 24.0723 11.7017 24.4277 11.2368L27.063 7.78125ZM39.5933 5.2998H38.373C37.6963 5.2998 37.1357 5.11523 36.6914 4.74609C36.2197 4.34961 35.9839 3.81982 35.9839 3.15674C35.9839 2.76025 36.0933 2.38086 36.312 2.01855C36.5376 1.64941 36.8247 1.38965 37.1733 1.23926C37.5288 1.08203 38.3662 1.00342 39.6855 1.00342H44.3408C45.4824 1.00342 46.2207 1.07178 46.5557 1.2085C46.9248 1.35889 47.2222 1.61865 47.4478 1.98779C47.6802 2.3501 47.7964 2.73291 47.7964 3.13623C47.7964 3.77197 47.5435 4.32568 47.0376 4.79736C46.6753 5.13232 46.084 5.2998 45.2637 5.2998H44.2075V12.2725C44.2075 13.0312 44.0776 13.6191 43.8179 14.0361C43.3804 14.7334 42.748 15.082 41.9209 15.082C41.0938 15.082 40.458 14.7642 40.0137 14.1284C39.7334 13.7319 39.5933 13.1304 39.5933 12.3237V5.2998ZM51.2109 13.1851C50.9922 13.7046 50.7666 14.0908 50.5342 14.3438C50.0693 14.8496 49.5054 15.1025 48.8423 15.1025C48.0288 15.1025 47.3965 14.7744 46.9453 14.1182C46.6787 13.7285 46.5454 13.291 46.5454 12.8057C46.5454 12.4023 46.6411 11.9956 46.8325 11.5854L51.2109 2.26465C51.6348 1.35547 52.3423 0.900879 53.3335 0.900879C54.3384 0.900879 55.0596 1.36914 55.4971 2.30566L59.9165 11.6982C60.0942 12.0742 60.1831 12.4468 60.1831 12.8159C60.1831 13.3628 60.0054 13.8481 59.6499 14.272C59.1851 14.8257 58.5903 15.1025 57.8657 15.1025C57.271 15.1025 56.7754 14.918 56.3789 14.5488C56.085 14.2754 55.791 13.8208 55.4971 13.1851H51.2109ZM65.5767 11.0728V12.4365C65.5767 13.1953 65.3887 13.8174 65.0127 14.3027C64.6025 14.8359 64.0283 15.1025 63.29 15.1025C62.4492 15.1025 61.8066 14.7505 61.3623 14.0464C61.1572 13.7251 61.0342 13.373 60.9932 12.9902C60.9727 12.833 60.9624 12.4502 60.9624 11.8418V3.66943C60.9624 2.7876 61.1743 2.13135 61.5981 1.70068C62.0562 1.23584 62.6816 1.00342 63.4746 1.00342H65.4229C66.6602 1.00342 67.5591 1.08887 68.1196 1.25977C69.1792 1.58105 70.0337 2.18262 70.6831 3.06445C71.3394 3.94629 71.6675 4.94092 71.6675 6.04834C71.6675 7.0874 71.3701 8.0376 70.7754 8.89893C69.7705 10.3481 68.3042 11.0728 66.3765 11.0728H65.5767ZM77.5635 10.6729H79.6655C80.5337 10.6729 81.1797 10.8506 81.6035 11.2061C82.1025 11.6299 82.3521 12.1768 82.3521 12.8467C82.3521 13.5303 82.1025 14.084 81.6035 14.5078C81.2139 14.8359 80.5747 15 79.686 15H76.0869C75.2393 15 74.6582 14.9351 74.3438 14.8052C73.7285 14.5522 73.3218 14.1387 73.1235 13.5645C73.0005 13.1953 72.939 12.5903 72.939 11.7495V4.14111C72.939 3.50537 72.9595 3.07812 73.0005 2.85938C73.0757 2.41504 73.2568 2.03906 73.5439 1.73145C73.8721 1.38281 74.2891 1.16064 74.7949 1.06494C75.0342 1.02393 75.5195 1.00342 76.251 1.00342H79.0093C79.7612 1.00342 80.1987 1.01025 80.3218 1.02393C80.814 1.07178 81.2173 1.21533 81.5317 1.45459C82.0923 1.87842 82.3726 2.43213 82.3726 3.11572C82.3726 3.854 82.1265 4.41797 81.6343 4.80762C81.1968 5.15625 80.5986 5.33057 79.8398 5.33057H77.5635V6.28418H79.3784C79.9116 6.28418 80.3525 6.42432 80.7012 6.70459C81.0703 7.00537 81.2549 7.41895 81.2549 7.94531C81.2549 9.05957 80.5747 9.6167 79.2144 9.6167H77.5635V10.6729ZM98.4814 7.51465C99.0283 8.04785 99.4009 8.52637 99.5991 8.9502C99.8794 9.55176 100.02 10.1841 100.02 10.8472C100.02 12.0913 99.5479 13.1338 98.6045 13.9746C98.0986 14.4258 97.5825 14.7197 97.0562 14.8564C96.6733 14.9521 96.0718 15 95.2515 15H91.5703C90.6885 15 90.0322 14.771 89.6016 14.313C89.2939 13.9849 89.106 13.626 89.0376 13.2363C89.0034 13.0518 88.9863 12.6313 88.9863 11.9751L88.9761 3.36182C88.9624 2.51416 89.3042 1.86133 90.0015 1.40332C90.3296 1.18457 90.791 1.05469 91.3857 1.01367C91.5156 1 92.001 0.996582 92.8418 1.00342C92.8418 1.00342 93.0571 1.00342 93.4878 1.00342C94.6089 1.00342 95.4155 1.06152 95.9077 1.17773C97.0151 1.44434 97.856 2.02881 98.4302 2.93115C98.9019 3.67627 99.1377 4.48291 99.1377 5.35107C99.1377 6.02783 98.9189 6.74902 98.4814 7.51465ZM108.161 9.16553V12.2622C108.161 13.0415 108.038 13.626 107.792 14.0156C107.334 14.7402 106.681 15.1025 105.833 15.1025C105.013 15.1025 104.374 14.7471 103.916 14.0361C103.663 13.6396 103.537 13.0449 103.537 12.252V9.16553L100.399 4.55127C100.091 4.1001 99.9375 3.62842 99.9375 3.13623C99.9375 2.62354 100.108 2.15869 100.45 1.7417C100.908 1.18115 101.503 0.900879 102.234 0.900879C103.089 0.900879 103.762 1.26318 104.254 1.98779L105.885 4.37695L107.597 1.92627C108.076 1.24268 108.729 0.900879 109.556 0.900879C110.185 0.900879 110.725 1.12646 111.176 1.57764C111.634 2.02197 111.863 2.55859 111.863 3.1875C111.863 3.65918 111.716 4.10352 111.422 4.52051L108.161 9.16553ZM122.455 10.6729H124.557C125.425 10.6729 126.071 10.8506 126.495 11.2061C126.994 11.6299 127.244 12.1768 127.244 12.8467C127.244 13.5303 126.994 14.084 126.495 14.5078C126.105 14.8359 125.466 15 124.578 15H120.979C120.131 15 119.55 14.9351 119.235 14.8052C118.62 14.5522 118.213 14.1387 118.015 13.5645C117.892 13.1953 117.831 12.5903 117.831 11.7495V4.14111C117.831 3.50537 117.851 3.07812 117.892 2.85938C117.967 2.41504 118.148 2.03906 118.436 1.73145C118.764 1.38281 119.181 1.16064 119.687 1.06494C119.926 1.02393 120.411 1.00342 121.143 1.00342H123.901C124.653 1.00342 125.09 1.01025 125.213 1.02393C125.706 1.07178 126.109 1.21533 126.423 1.45459C126.984 1.87842 127.264 2.43213 127.264 3.11572C127.264 3.854 127.018 4.41797 126.526 4.80762C126.088 5.15625 125.49 5.33057 124.731 5.33057H122.455V6.28418H124.27C124.803 6.28418 125.244 6.42432 125.593 6.70459C125.962 7.00537 126.146 7.41895 126.146 7.94531C126.146 9.05957 125.466 9.6167 124.106 9.6167H122.455V10.6729ZM133.232 10.6729H135.498C136.195 10.6729 136.746 10.8164 137.149 11.1035C137.737 11.5273 138.031 12.1016 138.031 12.8262C138.031 13.4824 137.792 14.0293 137.313 14.4668C136.93 14.8223 136.359 15 135.601 15H131.202C130.34 15 129.688 14.7573 129.243 14.272C128.922 13.9165 128.724 13.4619 128.648 12.9082C128.628 12.7305 128.618 12.2212 128.618 11.3804V3.48486C128.618 2.73975 128.812 2.13135 129.202 1.65967C129.619 1.15381 130.19 0.900879 130.915 0.900879C131.68 0.900879 132.278 1.18115 132.709 1.7417C133.058 2.19287 133.232 2.96191 133.232 4.04883V10.6729ZM148.315 7.51465C148.862 8.04785 149.235 8.52637 149.433 8.9502C149.713 9.55176 149.854 10.1841 149.854 10.8472C149.854 12.0913 149.382 13.1338 148.438 13.9746C147.933 14.4258 147.417 14.7197 146.89 14.8564C146.507 14.9521 145.906 15 145.085 15H141.404C140.522 15 139.866 14.771 139.436 14.313C139.128 13.9849 138.94 13.626 138.872 13.2363C138.837 13.0518 138.82 12.6313 138.82 11.9751L138.81 3.36182C138.796 2.51416 139.138 1.86133 139.835 1.40332C140.164 1.18457 140.625 1.05469 141.22 1.01367C141.35 1 141.835 0.996582 142.676 1.00342C142.676 1.00342 142.891 1.00342 143.322 1.00342C144.443 1.00342 145.25 1.06152 145.742 1.17773C146.849 1.44434 147.69 2.02881 148.264 2.93115C148.736 3.67627 148.972 4.48291 148.972 5.35107C148.972 6.02783 148.753 6.74902 148.315 7.51465Z" fill="#481121"/>
</svg>
