<svg width="193" height="16" viewBox="0 0 193 16" fill="none" xmlns="http://www.w3.org/2000/svg">
<path d="M8.72412 7.08398L11.0518 2.13135C11.4346 1.31104 12.1147 0.900879 13.0923 0.900879C14.3774 0.900879 15.1465 1.61865 15.3994 3.0542L17.0093 12.0776C17.0571 12.3442 17.0811 12.6074 17.0811 12.8672C17.0811 13.4961 16.8589 14.0259 16.4146 14.4565C15.9771 14.8872 15.4404 15.1025 14.8047 15.1025C14.2373 15.1025 13.7417 14.9453 13.3179 14.6309C12.894 14.3164 12.6274 13.8857 12.5181 13.3389L12.0054 10.7139L11.0928 13.1953C10.6279 14.4668 9.83838 15.1025 8.72412 15.1025C7.62354 15.1025 6.84082 14.4736 6.37598 13.2158L5.45312 10.7139L5.07373 12.9492C4.96436 13.5986 4.72168 14.1011 4.3457 14.4565C3.89453 14.8872 3.36816 15.1025 2.7666 15.1025C1.93945 15.1025 1.30029 14.7778 0.849121 14.1284C0.568848 13.7251 0.428711 13.2124 0.428711 12.5903C0.428711 12.4058 0.445801 12.2178 0.47998 12.0264L2.05908 3.0542C2.16846 2.42529 2.41455 1.91943 2.79736 1.53662C3.20752 1.11279 3.72021 0.900879 4.33545 0.900879C4.83447 0.900879 5.29248 1.04443 5.70947 1.33154C6.1333 1.61182 6.44775 1.98096 6.65283 2.43896L8.72412 7.08398ZM23.1001 3.76172V12.4468C23.1001 13.1987 22.9053 13.8174 22.5156 14.3027C22.0986 14.8359 21.521 15.1025 20.7827 15.1025C20.106 15.1025 19.5352 14.853 19.0703 14.354C18.6807 13.937 18.4858 13.3013 18.4858 12.4468V3.76172C18.4858 2.79102 18.6807 2.08691 19.0703 1.64941C19.5146 1.15039 20.0854 0.900879 20.7827 0.900879C21.48 0.900879 22.0508 1.14697 22.4951 1.63916C22.8984 2.09033 23.1001 2.79785 23.1001 3.76172ZM27.3862 7.78125L25.438 5.18701C24.8228 4.3667 24.5151 3.7002 24.5151 3.1875C24.5151 2.66797 24.6895 2.19629 25.0381 1.77246C25.5098 1.19141 26.1216 0.900879 26.8735 0.900879C27.6323 0.900879 28.2783 1.24951 28.8115 1.94678L30.3086 3.91553L31.7031 2.1416C32.3525 1.31445 33.0361 0.900879 33.7539 0.900879C34.5537 0.900879 35.1963 1.23242 35.6816 1.89551C35.9688 2.29199 36.1123 2.71924 36.1123 3.17725C36.1123 3.70361 35.8628 4.29492 35.3638 4.95117L33.2207 7.78125L35.8457 11.2778C36.1807 11.7222 36.3481 12.2314 36.3481 12.8057C36.3481 13.3252 36.1943 13.79 35.8867 14.2002C35.4355 14.8018 34.834 15.1025 34.082 15.1025C33.3232 15.1025 32.6943 14.7744 32.1953 14.1182L30.3086 11.6367L28.4116 14.0977C27.8921 14.7676 27.2666 15.1025 26.5352 15.1025C25.8994 15.1025 25.3525 14.8804 24.8945 14.436C24.4434 13.9849 24.2178 13.4414 24.2178 12.8057C24.2178 12.2246 24.3955 11.7017 24.751 11.2368L27.3862 7.78125ZM39.9165 5.2998H38.6963C38.0195 5.2998 37.459 5.11523 37.0146 4.74609C36.543 4.34961 36.3071 3.81982 36.3071 3.15674C36.3071 2.76025 36.4165 2.38086 36.6353 2.01855C36.8608 1.64941 37.1479 1.38965 37.4966 1.23926C37.8521 1.08203 38.6895 1.00342 40.0088 1.00342H44.6641C45.8057 1.00342 46.5439 1.07178 46.8789 1.2085C47.248 1.35889 47.5454 1.61865 47.771 1.98779C48.0034 2.3501 48.1196 2.73291 48.1196 3.13623C48.1196 3.77197 47.8667 4.32568 47.3608 4.79736C46.9985 5.13232 46.4072 5.2998 45.5869 5.2998H44.5308V12.2725C44.5308 13.0312 44.4009 13.6191 44.1411 14.0361C43.7036 14.7334 43.0713 15.082 42.2441 15.082C41.417 15.082 40.7812 14.7642 40.3369 14.1284C40.0566 13.7319 39.9165 13.1304 39.9165 12.3237V5.2998ZM51.5342 13.1851C51.3154 13.7046 51.0898 14.0908 50.8574 14.3438C50.3926 14.8496 49.8286 15.1025 49.1655 15.1025C48.3521 15.1025 47.7197 14.7744 47.2686 14.1182C47.002 13.7285 46.8687 13.291 46.8687 12.8057C46.8687 12.4023 46.9644 11.9956 47.1558 11.5854L51.5342 2.26465C51.958 1.35547 52.6655 0.900879 53.6567 0.900879C54.6616 0.900879 55.3828 1.36914 55.8203 2.30566L60.2397 11.6982C60.4175 12.0742 60.5063 12.4468 60.5063 12.8159C60.5063 13.3628 60.3286 13.8481 59.9731 14.272C59.5083 14.8257 58.9136 15.1025 58.189 15.1025C57.5942 15.1025 57.0986 14.918 56.7021 14.5488C56.4082 14.2754 56.1143 13.8208 55.8203 13.1851H51.5342ZM65.8999 11.0728V12.4365C65.8999 13.1953 65.7119 13.8174 65.3359 14.3027C64.9258 14.8359 64.3516 15.1025 63.6133 15.1025C62.7725 15.1025 62.1299 14.7505 61.6855 14.0464C61.4805 13.7251 61.3574 13.373 61.3164 12.9902C61.2959 12.833 61.2856 12.4502 61.2856 11.8418V3.66943C61.2856 2.7876 61.4976 2.13135 61.9214 1.70068C62.3794 1.23584 63.0049 1.00342 63.7979 1.00342H65.7461C66.9834 1.00342 67.8823 1.08887 68.4429 1.25977C69.5024 1.58105 70.3569 2.18262 71.0063 3.06445C71.6626 3.94629 71.9907 4.94092 71.9907 6.04834C71.9907 7.0874 71.6934 8.0376 71.0986 8.89893C70.0938 10.3481 68.6274 11.0728 66.6997 11.0728H65.8999ZM77.8867 10.6729H79.9888C80.8569 10.6729 81.5029 10.8506 81.9268 11.2061C82.4258 11.6299 82.6753 12.1768 82.6753 12.8467C82.6753 13.5303 82.4258 14.084 81.9268 14.5078C81.5371 14.8359 80.8979 15 80.0093 15H76.4102C75.5625 15 74.9814 14.9351 74.667 14.8052C74.0518 14.5522 73.645 14.1387 73.4468 13.5645C73.3237 13.1953 73.2622 12.5903 73.2622 11.7495V4.14111C73.2622 3.50537 73.2827 3.07812 73.3237 2.85938C73.3989 2.41504 73.5801 2.03906 73.8672 1.73145C74.1953 1.38281 74.6123 1.16064 75.1182 1.06494C75.3574 1.02393 75.8428 1.00342 76.5742 1.00342H79.3325C80.0845 1.00342 80.522 1.01025 80.645 1.02393C81.1372 1.07178 81.5405 1.21533 81.855 1.45459C82.4155 1.87842 82.6958 2.43213 82.6958 3.11572C82.6958 3.854 82.4497 4.41797 81.9575 4.80762C81.52 5.15625 80.9219 5.33057 80.1631 5.33057H77.8867V6.28418H79.7017C80.2349 6.28418 80.6758 6.42432 81.0244 6.70459C81.3936 7.00537 81.5781 7.41895 81.5781 7.94531C81.5781 9.05957 80.8979 9.6167 79.5376 9.6167H77.8867V10.6729ZM98.8047 7.51465C99.3516 8.04785 99.7241 8.52637 99.9224 8.9502C100.203 9.55176 100.343 10.1841 100.343 10.8472C100.343 12.0913 99.8711 13.1338 98.9277 13.9746C98.4219 14.4258 97.9058 14.7197 97.3794 14.8564C96.9966 14.9521 96.395 15 95.5747 15H91.8936C91.0117 15 90.3555 14.771 89.9248 14.313C89.6172 13.9849 89.4292 13.626 89.3608 13.2363C89.3267 13.0518 89.3096 12.6313 89.3096 11.9751L89.2993 3.36182C89.2856 2.51416 89.6274 1.86133 90.3247 1.40332C90.6528 1.18457 91.1143 1.05469 91.709 1.01367C91.8389 1 92.3242 0.996582 93.165 1.00342C93.165 1.00342 93.3804 1.00342 93.811 1.00342C94.9321 1.00342 95.7388 1.06152 96.231 1.17773C97.3384 1.44434 98.1792 2.02881 98.7534 2.93115C99.2251 3.67627 99.4609 4.48291 99.4609 5.35107C99.4609 6.02783 99.2422 6.74902 98.8047 7.51465ZM108.484 9.16553V12.2622C108.484 13.0415 108.361 13.626 108.115 14.0156C107.657 14.7402 107.004 15.1025 106.157 15.1025C105.336 15.1025 104.697 14.7471 104.239 14.0361C103.986 13.6396 103.86 13.0449 103.86 12.252V9.16553L100.722 4.55127C100.415 4.1001 100.261 3.62842 100.261 3.13623C100.261 2.62354 100.432 2.15869 100.773 1.7417C101.231 1.18115 101.826 0.900879 102.558 0.900879C103.412 0.900879 104.085 1.26318 104.578 1.98779L106.208 4.37695L107.92 1.92627C108.399 1.24268 109.052 0.900879 109.879 0.900879C110.508 0.900879 111.048 1.12646 111.499 1.57764C111.957 2.02197 112.186 2.55859 112.186 3.1875C112.186 3.65918 112.039 4.10352 111.745 4.52051L108.484 9.16553ZM122.778 10.6729H124.88C125.749 10.6729 126.395 10.8506 126.818 11.2061C127.317 11.6299 127.567 12.1768 127.567 12.8467C127.567 13.5303 127.317 14.084 126.818 14.5078C126.429 14.8359 125.79 15 124.901 15H121.302C120.454 15 119.873 14.9351 119.559 14.8052C118.943 14.5522 118.537 14.1387 118.338 13.5645C118.215 13.1953 118.154 12.5903 118.154 11.7495V4.14111C118.154 3.50537 118.174 3.07812 118.215 2.85938C118.291 2.41504 118.472 2.03906 118.759 1.73145C119.087 1.38281 119.504 1.16064 120.01 1.06494C120.249 1.02393 120.734 1.00342 121.466 1.00342H124.224C124.976 1.00342 125.414 1.01025 125.537 1.02393C126.029 1.07178 126.432 1.21533 126.747 1.45459C127.307 1.87842 127.587 2.43213 127.587 3.11572C127.587 3.854 127.341 4.41797 126.849 4.80762C126.412 5.15625 125.813 5.33057 125.055 5.33057H122.778V6.28418H124.593C125.126 6.28418 125.567 6.42432 125.916 6.70459C126.285 7.00537 126.47 7.41895 126.47 7.94531C126.47 9.05957 125.79 9.6167 124.429 9.6167H122.778V10.6729ZM136.631 7.08398L138.959 2.13135C139.342 1.31104 140.022 0.900879 141 0.900879C142.285 0.900879 143.054 1.61865 143.307 3.0542L144.917 12.0776C144.964 12.3442 144.988 12.6074 144.988 12.8672C144.988 13.4961 144.766 14.0259 144.322 14.4565C143.884 14.8872 143.348 15.1025 142.712 15.1025C142.145 15.1025 141.649 14.9453 141.225 14.6309C140.801 14.3164 140.535 13.8857 140.425 13.3389L139.913 10.7139L139 13.1953C138.535 14.4668 137.746 15.1025 136.631 15.1025C135.531 15.1025 134.748 14.4736 134.283 13.2158L133.36 10.7139L132.981 12.9492C132.872 13.5986 132.629 14.1011 132.253 14.4565C131.802 14.8872 131.275 15.1025 130.674 15.1025C129.847 15.1025 129.208 14.7778 128.756 14.1284C128.476 13.7251 128.336 13.2124 128.336 12.5903C128.336 12.4058 128.353 12.2178 128.387 12.0264L129.966 3.0542C130.076 2.42529 130.322 1.91943 130.705 1.53662C131.115 1.11279 131.627 0.900879 132.243 0.900879C132.742 0.900879 133.2 1.04443 133.617 1.33154C134.041 1.61182 134.355 1.98096 134.56 2.43896L136.631 7.08398ZM151.007 3.76172V12.4468C151.007 13.1987 150.812 13.8174 150.423 14.3027C150.006 14.8359 149.428 15.1025 148.69 15.1025C148.013 15.1025 147.442 14.853 146.978 14.354C146.588 13.937 146.393 13.3013 146.393 12.4468V3.76172C146.393 2.79102 146.588 2.08691 146.978 1.64941C147.422 1.15039 147.993 0.900879 148.69 0.900879C149.387 0.900879 149.958 1.14697 150.402 1.63916C150.806 2.09033 151.007 2.79785 151.007 3.76172ZM157.59 10.6729H159.856C160.554 10.6729 161.104 10.8164 161.507 11.1035C162.095 11.5273 162.389 12.1016 162.389 12.8262C162.389 13.4824 162.15 14.0293 161.671 14.4668C161.289 14.8223 160.718 15 159.959 15H155.56C154.699 15 154.046 14.7573 153.602 14.272C153.28 13.9165 153.082 13.4619 153.007 12.9082C152.986 12.7305 152.976 12.2212 152.976 11.3804V3.48486C152.976 2.73975 153.171 2.13135 153.561 1.65967C153.978 1.15381 154.548 0.900879 155.273 0.900879C156.039 0.900879 156.637 1.18115 157.067 1.7417C157.416 2.19287 157.59 2.96191 157.59 4.04883V10.6729ZM167.783 3.76172V12.4468C167.783 13.1987 167.588 13.8174 167.198 14.3027C166.781 14.8359 166.204 15.1025 165.465 15.1025C164.789 15.1025 164.218 14.853 163.753 14.354C163.363 13.937 163.168 13.3013 163.168 12.4468V3.76172C163.168 2.79102 163.363 2.08691 163.753 1.64941C164.197 1.15039 164.768 0.900879 165.465 0.900879C166.163 0.900879 166.733 1.14697 167.178 1.63916C167.581 2.09033 167.783 2.79785 167.783 3.76172ZM174.376 10.6729H176.478C177.346 10.6729 177.992 10.8506 178.416 11.2061C178.915 11.6299 179.165 12.1768 179.165 12.8467C179.165 13.5303 178.915 14.084 178.416 14.5078C178.026 14.8359 177.387 15 176.499 15H172.899C172.052 15 171.471 14.9351 171.156 14.8052C170.541 14.5522 170.134 14.1387 169.936 13.5645C169.813 13.1953 169.751 12.5903 169.751 11.7495V4.14111C169.751 3.50537 169.772 3.07812 169.813 2.85938C169.888 2.41504 170.069 2.03906 170.356 1.73145C170.685 1.38281 171.102 1.16064 171.607 1.06494C171.847 1.02393 172.332 1.00342 173.063 1.00342H175.822C176.574 1.00342 177.011 1.01025 177.134 1.02393C177.626 1.07178 178.03 1.21533 178.344 1.45459C178.905 1.87842 179.185 2.43213 179.185 3.11572C179.185 3.854 178.939 4.41797 178.447 4.80762C178.009 5.15625 177.411 5.33057 176.652 5.33057H174.376V6.28418H176.191C176.724 6.28418 177.165 6.42432 177.514 6.70459C177.883 7.00537 178.067 7.41895 178.067 7.94531C178.067 9.05957 177.387 9.6167 176.027 9.6167H174.376V10.6729ZM188.352 6.3252V3.7207C188.352 2.9209 188.492 2.3125 188.772 1.89551C189.217 1.23242 189.853 0.900879 190.68 0.900879C191.391 0.900879 191.975 1.17773 192.433 1.73145C192.795 2.16895 192.977 2.78076 192.977 3.56689V12.1494C192.977 13.1064 192.809 13.8003 192.474 14.231C192.023 14.812 191.425 15.1025 190.68 15.1025C189.935 15.1025 189.319 14.7915 188.834 14.1694L185.153 9.47314V12.416C185.153 13.2295 184.985 13.8447 184.65 14.2617C184.199 14.8223 183.608 15.1025 182.876 15.1025C182.097 15.1025 181.482 14.8018 181.031 14.2002C180.703 13.7627 180.539 13.1064 180.539 12.2314V3.38232C180.539 2.63721 180.754 2.03906 181.185 1.58789C181.622 1.12988 182.213 0.900879 182.958 0.900879C183.601 0.900879 184.172 1.20508 184.671 1.81348L188.352 6.3252Z" fill="#481121"/>
</svg>
