<svg width="184" height="16" viewBox="0 0 184 16" fill="none" xmlns="http://www.w3.org/2000/svg">
<path d="M8.59473 7.08398L10.9224 2.13135C11.3052 1.31104 11.9854 0.900879 12.9629 0.900879C14.248 0.900879 15.0171 1.61865 15.27 3.0542L16.8799 12.0776C16.9277 12.3442 16.9517 12.6074 16.9517 12.8672C16.9517 13.4961 16.7295 14.0259 16.2852 14.4565C15.8477 14.8872 15.311 15.1025 14.6753 15.1025C14.1079 15.1025 13.6123 14.9453 13.1885 14.6309C12.7646 14.3164 12.498 13.8857 12.3887 13.3389L11.876 10.7139L10.9634 13.1953C10.4985 14.4668 9.70898 15.1025 8.59473 15.1025C7.49414 15.1025 6.71143 14.4736 6.24658 13.2158L5.32373 10.7139L4.94434 12.9492C4.83496 13.5986 4.59229 14.1011 4.21631 14.4565C3.76514 14.8872 3.23877 15.1025 2.63721 15.1025C1.81006 15.1025 1.1709 14.7778 0.719727 14.1284C0.439453 13.7251 0.299316 13.2124 0.299316 12.5903C0.299316 12.4058 0.316406 12.2178 0.350586 12.0264L1.92969 3.0542C2.03906 2.42529 2.28516 1.91943 2.66797 1.53662C3.07812 1.11279 3.59082 0.900879 4.20605 0.900879C4.70508 0.900879 5.16309 1.04443 5.58008 1.33154C6.00391 1.61182 6.31836 1.98096 6.52344 2.43896L8.59473 7.08398ZM22.9707 3.76172V12.4468C22.9707 13.1987 22.7759 13.8174 22.3862 14.3027C21.9692 14.8359 21.3916 15.1025 20.6533 15.1025C19.9766 15.1025 19.4058 14.853 18.9409 14.354C18.5513 13.937 18.3564 13.3013 18.3564 12.4468V3.76172C18.3564 2.79102 18.5513 2.08691 18.9409 1.64941C19.3853 1.15039 19.9561 0.900879 20.6533 0.900879C21.3506 0.900879 21.9214 1.14697 22.3657 1.63916C22.769 2.09033 22.9707 2.79785 22.9707 3.76172ZM27.2568 7.78125L25.3086 5.18701C24.6934 4.3667 24.3857 3.7002 24.3857 3.1875C24.3857 2.66797 24.5601 2.19629 24.9087 1.77246C25.3804 1.19141 25.9922 0.900879 26.7441 0.900879C27.5029 0.900879 28.1489 1.24951 28.6821 1.94678L30.1792 3.91553L31.5737 2.1416C32.2231 1.31445 32.9067 0.900879 33.6245 0.900879C34.4243 0.900879 35.0669 1.23242 35.5522 1.89551C35.8394 2.29199 35.9829 2.71924 35.9829 3.17725C35.9829 3.70361 35.7334 4.29492 35.2344 4.95117L33.0913 7.78125L35.7163 11.2778C36.0513 11.7222 36.2188 12.2314 36.2188 12.8057C36.2188 13.3252 36.0649 13.79 35.7573 14.2002C35.3062 14.8018 34.7046 15.1025 33.9526 15.1025C33.1938 15.1025 32.5649 14.7744 32.0659 14.1182L30.1792 11.6367L28.2822 14.0977C27.7627 14.7676 27.1372 15.1025 26.4058 15.1025C25.77 15.1025 25.2231 14.8804 24.7651 14.436C24.314 13.9849 24.0884 13.4414 24.0884 12.8057C24.0884 12.2246 24.2661 11.7017 24.6216 11.2368L27.2568 7.78125ZM39.7871 5.2998H38.5669C37.8901 5.2998 37.3296 5.11523 36.8853 4.74609C36.4136 4.34961 36.1777 3.81982 36.1777 3.15674C36.1777 2.76025 36.2871 2.38086 36.5059 2.01855C36.7314 1.64941 37.0186 1.38965 37.3672 1.23926C37.7227 1.08203 38.5601 1.00342 39.8794 1.00342H44.5347C45.6763 1.00342 46.4146 1.07178 46.7495 1.2085C47.1187 1.35889 47.416 1.61865 47.6416 1.98779C47.874 2.3501 47.9902 2.73291 47.9902 3.13623C47.9902 3.77197 47.7373 4.32568 47.2314 4.79736C46.8691 5.13232 46.2778 5.2998 45.4575 5.2998H44.4014V12.2725C44.4014 13.0312 44.2715 13.6191 44.0117 14.0361C43.5742 14.7334 42.9419 15.082 42.1147 15.082C41.2876 15.082 40.6519 14.7642 40.2075 14.1284C39.9272 13.7319 39.7871 13.1304 39.7871 12.3237V5.2998ZM51.4048 13.1851C51.186 13.7046 50.9604 14.0908 50.728 14.3438C50.2632 14.8496 49.6992 15.1025 49.0361 15.1025C48.2227 15.1025 47.5903 14.7744 47.1392 14.1182C46.8726 13.7285 46.7393 13.291 46.7393 12.8057C46.7393 12.4023 46.835 11.9956 47.0264 11.5854L51.4048 2.26465C51.8286 1.35547 52.5361 0.900879 53.5273 0.900879C54.5322 0.900879 55.2534 1.36914 55.6909 2.30566L60.1104 11.6982C60.2881 12.0742 60.377 12.4468 60.377 12.8159C60.377 13.3628 60.1992 13.8481 59.8438 14.272C59.3789 14.8257 58.7842 15.1025 58.0596 15.1025C57.4648 15.1025 56.9692 14.918 56.5728 14.5488C56.2788 14.2754 55.9849 13.8208 55.6909 13.1851H51.4048ZM65.7705 11.0728V12.4365C65.7705 13.1953 65.5825 13.8174 65.2065 14.3027C64.7964 14.8359 64.2222 15.1025 63.4839 15.1025C62.6431 15.1025 62.0005 14.7505 61.5562 14.0464C61.3511 13.7251 61.228 13.373 61.187 12.9902C61.1665 12.833 61.1562 12.4502 61.1562 11.8418V3.66943C61.1562 2.7876 61.3682 2.13135 61.792 1.70068C62.25 1.23584 62.8755 1.00342 63.6685 1.00342H65.6167C66.854 1.00342 67.7529 1.08887 68.3135 1.25977C69.373 1.58105 70.2275 2.18262 70.877 3.06445C71.5332 3.94629 71.8613 4.94092 71.8613 6.04834C71.8613 7.0874 71.564 8.0376 70.9692 8.89893C69.9644 10.3481 68.498 11.0728 66.5703 11.0728H65.7705ZM77.7573 10.6729H79.8594C80.7275 10.6729 81.3735 10.8506 81.7974 11.2061C82.2964 11.6299 82.5459 12.1768 82.5459 12.8467C82.5459 13.5303 82.2964 14.084 81.7974 14.5078C81.4077 14.8359 80.7686 15 79.8799 15H76.2808C75.4331 15 74.8521 14.9351 74.5376 14.8052C73.9224 14.5522 73.5156 14.1387 73.3174 13.5645C73.1943 13.1953 73.1328 12.5903 73.1328 11.7495V4.14111C73.1328 3.50537 73.1533 3.07812 73.1943 2.85938C73.2695 2.41504 73.4507 2.03906 73.7378 1.73145C74.0659 1.38281 74.4829 1.16064 74.9888 1.06494C75.228 1.02393 75.7134 1.00342 76.4448 1.00342H79.2031C79.9551 1.00342 80.3926 1.01025 80.5156 1.02393C81.0078 1.07178 81.4111 1.21533 81.7256 1.45459C82.2861 1.87842 82.5664 2.43213 82.5664 3.11572C82.5664 3.854 82.3203 4.41797 81.8281 4.80762C81.3906 5.15625 80.7925 5.33057 80.0337 5.33057H77.7573V6.28418H79.5723C80.1055 6.28418 80.5464 6.42432 80.895 6.70459C81.2642 7.00537 81.4487 7.41895 81.4487 7.94531C81.4487 9.05957 80.7686 9.6167 79.4082 9.6167H77.7573V10.6729ZM98.6753 7.51465C99.2222 8.04785 99.5947 8.52637 99.793 8.9502C100.073 9.55176 100.213 10.1841 100.213 10.8472C100.213 12.0913 99.7417 13.1338 98.7983 13.9746C98.2925 14.4258 97.7764 14.7197 97.25 14.8564C96.8672 14.9521 96.2656 15 95.4453 15H91.7642C90.8823 15 90.2261 14.771 89.7954 14.313C89.4878 13.9849 89.2998 13.626 89.2314 13.2363C89.1973 13.0518 89.1802 12.6313 89.1802 11.9751L89.1699 3.36182C89.1562 2.51416 89.498 1.86133 90.1953 1.40332C90.5234 1.18457 90.9849 1.05469 91.5796 1.01367C91.7095 1 92.1948 0.996582 93.0356 1.00342C93.0356 1.00342 93.251 1.00342 93.6816 1.00342C94.8027 1.00342 95.6094 1.06152 96.1016 1.17773C97.209 1.44434 98.0498 2.02881 98.624 2.93115C99.0957 3.67627 99.3315 4.48291 99.3315 5.35107C99.3315 6.02783 99.1128 6.74902 98.6753 7.51465ZM108.355 9.16553V12.2622C108.355 13.0415 108.232 13.626 107.986 14.0156C107.528 14.7402 106.875 15.1025 106.027 15.1025C105.207 15.1025 104.568 14.7471 104.11 14.0361C103.857 13.6396 103.73 13.0449 103.73 12.252V9.16553L100.593 4.55127C100.285 4.1001 100.131 3.62842 100.131 3.13623C100.131 2.62354 100.302 2.15869 100.644 1.7417C101.102 1.18115 101.697 0.900879 102.428 0.900879C103.283 0.900879 103.956 1.26318 104.448 1.98779L106.079 4.37695L107.791 1.92627C108.27 1.24268 108.922 0.900879 109.75 0.900879C110.378 0.900879 110.918 1.12646 111.37 1.57764C111.828 2.02197 112.057 2.55859 112.057 3.1875C112.057 3.65918 111.91 4.10352 111.616 4.52051L108.355 9.16553ZM122.639 9.62695V11.8521C122.639 12.8706 122.512 13.5952 122.259 14.0259C121.835 14.7437 121.186 15.1025 120.311 15.1025C119.696 15.1025 119.183 14.9043 118.773 14.5078C118.363 14.1045 118.124 13.5952 118.055 12.98C118.035 12.7886 118.024 12.4058 118.024 11.8315V3.76172C118.024 3.05762 118.12 2.53125 118.312 2.18262C118.605 1.64941 119.036 1.3042 119.604 1.14697C119.938 1.05127 120.516 1.00342 121.336 1.00342H124.115C125.264 1.00342 126.04 1.11963 126.443 1.35205C127.113 1.73486 127.448 2.32275 127.448 3.11572C127.448 3.80615 127.198 4.37354 126.699 4.81787C126.31 5.15967 125.732 5.33057 124.966 5.33057H122.639V6.29443H124.064C124.741 6.29443 125.236 6.3833 125.551 6.56104C126.063 6.84814 126.32 7.30957 126.32 7.94531C126.32 9.06641 125.636 9.62695 124.269 9.62695H122.639ZM133.333 10.6729H135.436C136.304 10.6729 136.95 10.8506 137.374 11.2061C137.873 11.6299 138.122 12.1768 138.122 12.8467C138.122 13.5303 137.873 14.084 137.374 14.5078C136.984 14.8359 136.345 15 135.456 15H131.857C131.009 15 130.428 14.9351 130.114 14.8052C129.499 14.5522 129.092 14.1387 128.894 13.5645C128.771 13.1953 128.709 12.5903 128.709 11.7495V4.14111C128.709 3.50537 128.729 3.07812 128.771 2.85938C128.846 2.41504 129.027 2.03906 129.314 1.73145C129.642 1.38281 130.059 1.16064 130.565 1.06494C130.804 1.02393 131.29 1.00342 132.021 1.00342H134.779C135.531 1.00342 135.969 1.01025 136.092 1.02393C136.584 1.07178 136.987 1.21533 137.302 1.45459C137.862 1.87842 138.143 2.43213 138.143 3.11572C138.143 3.854 137.896 4.41797 137.404 4.80762C136.967 5.15625 136.369 5.33057 135.61 5.33057H133.333V6.28418H135.148C135.682 6.28418 136.123 6.42432 136.471 6.70459C136.84 7.00537 137.025 7.41895 137.025 7.94531C137.025 9.05957 136.345 9.6167 134.984 9.6167H133.333V10.6729ZM148.714 9.60645L149.801 11.3496C150.102 11.835 150.252 12.334 150.252 12.8467C150.252 13.4961 150.027 14.0361 149.576 14.4668C149.131 14.8906 148.584 15.1025 147.935 15.1025C147.101 15.1025 146.469 14.7471 146.038 14.0361L144.11 10.8779V12.7749C144.11 13.4243 143.895 13.9746 143.464 14.4258C143.041 14.877 142.504 15.1025 141.854 15.1025C141.062 15.1025 140.46 14.8188 140.05 14.2515C139.681 13.7524 139.496 13.0962 139.496 12.2827V3.65918C139.496 1.88867 140.45 1.00342 142.357 1.00342H145.29C146.253 1.00342 147.149 1.28369 147.976 1.84424C148.803 2.39795 149.408 3.11914 149.791 4.00781C150.078 4.67773 150.222 5.35107 150.222 6.02783C150.222 7.29248 149.719 8.48535 148.714 9.60645ZM154.487 1.00342H157.307C159.365 1.00342 161.057 1.59131 162.383 2.76709C163.935 4.14111 164.71 5.88086 164.71 7.98633C164.71 9.01855 164.485 10.0098 164.034 10.96C163.254 12.6006 162.038 13.7627 160.383 14.4463C159.488 14.8154 158.288 15 156.784 15H154.826C153.889 15 153.236 14.877 152.867 14.6309C152.389 14.3096 152.081 13.9062 151.944 13.4209C151.862 13.127 151.821 12.6006 151.821 11.8418V4.15137C151.821 3.48828 151.832 3.08154 151.852 2.93115C151.907 2.50049 152.064 2.13477 152.324 1.83398C152.795 1.28027 153.517 1.00342 154.487 1.00342ZM170.729 3.76172V12.4468C170.729 13.1987 170.535 13.8174 170.145 14.3027C169.728 14.8359 169.15 15.1025 168.412 15.1025C167.735 15.1025 167.165 14.853 166.7 14.354C166.31 13.937 166.115 13.3013 166.115 12.4468V3.76172C166.115 2.79102 166.31 2.08691 166.7 1.64941C167.144 1.15039 167.715 0.900879 168.412 0.900879C169.109 0.900879 169.68 1.14697 170.125 1.63916C170.528 2.09033 170.729 2.79785 170.729 3.76172ZM175.016 7.78125L173.067 5.18701C172.452 4.3667 172.145 3.7002 172.145 3.1875C172.145 2.66797 172.319 2.19629 172.667 1.77246C173.139 1.19141 173.751 0.900879 174.503 0.900879C175.262 0.900879 175.908 1.24951 176.441 1.94678L177.938 3.91553L179.333 2.1416C179.982 1.31445 180.666 0.900879 181.383 0.900879C182.183 0.900879 182.826 1.23242 183.311 1.89551C183.598 2.29199 183.742 2.71924 183.742 3.17725C183.742 3.70361 183.492 4.29492 182.993 4.95117L180.85 7.78125L183.475 11.2778C183.81 11.7222 183.978 12.2314 183.978 12.8057C183.978 13.3252 183.824 13.79 183.516 14.2002C183.065 14.8018 182.463 15.1025 181.711 15.1025C180.953 15.1025 180.324 14.7744 179.825 14.1182L177.938 11.6367L176.041 14.0977C175.521 14.7676 174.896 15.1025 174.165 15.1025C173.529 15.1025 172.982 14.8804 172.524 14.436C172.073 13.9849 171.847 13.4414 171.847 12.8057C171.847 12.2246 172.025 11.7017 172.38 11.2368L175.016 7.78125Z" fill="#481121"/>
</svg>
