<svg width="212" height="16" viewBox="0 0 212 16" fill="none" xmlns="http://www.w3.org/2000/svg">
<path d="M8.49561 7.08398L10.8232 2.13135C11.2061 1.31104 11.8862 0.900879 12.8638 0.900879C14.1489 0.900879 14.918 1.61865 15.1709 3.0542L16.7808 12.0776C16.8286 12.3442 16.8525 12.6074 16.8525 12.8672C16.8525 13.4961 16.6304 14.0259 16.186 14.4565C15.7485 14.8872 15.2119 15.1025 14.5762 15.1025C14.0088 15.1025 13.5132 14.9453 13.0894 14.6309C12.6655 14.3164 12.3989 13.8857 12.2896 13.3389L11.7769 10.7139L10.8643 13.1953C10.3994 14.4668 9.60986 15.1025 8.49561 15.1025C7.39502 15.1025 6.6123 14.4736 6.14746 13.2158L5.22461 10.7139L4.84521 12.9492C4.73584 13.5986 4.49316 14.1011 4.11719 14.4565C3.66602 14.8872 3.13965 15.1025 2.53809 15.1025C1.71094 15.1025 1.07178 14.7778 0.620605 14.1284C0.340332 13.7251 0.200195 13.2124 0.200195 12.5903C0.200195 12.4058 0.217285 12.2178 0.251465 12.0264L1.83057 3.0542C1.93994 2.42529 2.18604 1.91943 2.56885 1.53662C2.979 1.11279 3.4917 0.900879 4.10693 0.900879C4.60596 0.900879 5.06396 1.04443 5.48096 1.33154C5.90479 1.61182 6.21924 1.98096 6.42432 2.43896L8.49561 7.08398ZM22.8716 3.76172V12.4468C22.8716 13.1987 22.6768 13.8174 22.2871 14.3027C21.8701 14.8359 21.2925 15.1025 20.5542 15.1025C19.8774 15.1025 19.3066 14.853 18.8418 14.354C18.4521 13.937 18.2573 13.3013 18.2573 12.4468V3.76172C18.2573 2.79102 18.4521 2.08691 18.8418 1.64941C19.2861 1.15039 19.8569 0.900879 20.5542 0.900879C21.2515 0.900879 21.8223 1.14697 22.2666 1.63916C22.6699 2.09033 22.8716 2.79785 22.8716 3.76172ZM27.1577 7.78125L25.2095 5.18701C24.5942 4.3667 24.2866 3.7002 24.2866 3.1875C24.2866 2.66797 24.4609 2.19629 24.8096 1.77246C25.2812 1.19141 25.8931 0.900879 26.645 0.900879C27.4038 0.900879 28.0498 1.24951 28.583 1.94678L30.0801 3.91553L31.4746 2.1416C32.124 1.31445 32.8076 0.900879 33.5254 0.900879C34.3252 0.900879 34.9678 1.23242 35.4531 1.89551C35.7402 2.29199 35.8838 2.71924 35.8838 3.17725C35.8838 3.70361 35.6343 4.29492 35.1353 4.95117L32.9922 7.78125L35.6172 11.2778C35.9521 11.7222 36.1196 12.2314 36.1196 12.8057C36.1196 13.3252 35.9658 13.79 35.6582 14.2002C35.207 14.8018 34.6055 15.1025 33.8535 15.1025C33.0947 15.1025 32.4658 14.7744 31.9668 14.1182L30.0801 11.6367L28.1831 14.0977C27.6636 14.7676 27.0381 15.1025 26.3066 15.1025C25.6709 15.1025 25.124 14.8804 24.666 14.436C24.2148 13.9849 23.9893 13.4414 23.9893 12.8057C23.9893 12.2246 24.167 11.7017 24.5225 11.2368L27.1577 7.78125ZM39.688 5.2998H38.4678C37.791 5.2998 37.2305 5.11523 36.7861 4.74609C36.3145 4.34961 36.0786 3.81982 36.0786 3.15674C36.0786 2.76025 36.188 2.38086 36.4067 2.01855C36.6323 1.64941 36.9194 1.38965 37.2681 1.23926C37.6235 1.08203 38.4609 1.00342 39.7803 1.00342H44.4355C45.5771 1.00342 46.3154 1.07178 46.6504 1.2085C47.0195 1.35889 47.3169 1.61865 47.5425 1.98779C47.7749 2.3501 47.8911 2.73291 47.8911 3.13623C47.8911 3.77197 47.6382 4.32568 47.1323 4.79736C46.77 5.13232 46.1787 5.2998 45.3584 5.2998H44.3022V12.2725C44.3022 13.0312 44.1724 13.6191 43.9126 14.0361C43.4751 14.7334 42.8428 15.082 42.0156 15.082C41.1885 15.082 40.5527 14.7642 40.1084 14.1284C39.8281 13.7319 39.688 13.1304 39.688 12.3237V5.2998ZM51.3057 13.1851C51.0869 13.7046 50.8613 14.0908 50.6289 14.3438C50.1641 14.8496 49.6001 15.1025 48.937 15.1025C48.1235 15.1025 47.4912 14.7744 47.04 14.1182C46.7734 13.7285 46.6401 13.291 46.6401 12.8057C46.6401 12.4023 46.7358 11.9956 46.9272 11.5854L51.3057 2.26465C51.7295 1.35547 52.437 0.900879 53.4282 0.900879C54.4331 0.900879 55.1543 1.36914 55.5918 2.30566L60.0112 11.6982C60.189 12.0742 60.2778 12.4468 60.2778 12.8159C60.2778 13.3628 60.1001 13.8481 59.7446 14.272C59.2798 14.8257 58.6851 15.1025 57.9604 15.1025C57.3657 15.1025 56.8701 14.918 56.4736 14.5488C56.1797 14.2754 55.8857 13.8208 55.5918 13.1851H51.3057ZM65.6714 11.0728V12.4365C65.6714 13.1953 65.4834 13.8174 65.1074 14.3027C64.6973 14.8359 64.123 15.1025 63.3848 15.1025C62.5439 15.1025 61.9014 14.7505 61.457 14.0464C61.252 13.7251 61.1289 13.373 61.0879 12.9902C61.0674 12.833 61.0571 12.4502 61.0571 11.8418V3.66943C61.0571 2.7876 61.269 2.13135 61.6929 1.70068C62.1509 1.23584 62.7764 1.00342 63.5693 1.00342H65.5176C66.7549 1.00342 67.6538 1.08887 68.2144 1.25977C69.2739 1.58105 70.1284 2.18262 70.7778 3.06445C71.4341 3.94629 71.7622 4.94092 71.7622 6.04834C71.7622 7.0874 71.4648 8.0376 70.8701 8.89893C69.8652 10.3481 68.3989 11.0728 66.4712 11.0728H65.6714ZM77.6582 10.6729H79.7603C80.6284 10.6729 81.2744 10.8506 81.6982 11.2061C82.1973 11.6299 82.4468 12.1768 82.4468 12.8467C82.4468 13.5303 82.1973 14.084 81.6982 14.5078C81.3086 14.8359 80.6694 15 79.7808 15H76.1816C75.334 15 74.7529 14.9351 74.4385 14.8052C73.8232 14.5522 73.4165 14.1387 73.2183 13.5645C73.0952 13.1953 73.0337 12.5903 73.0337 11.7495V4.14111C73.0337 3.50537 73.0542 3.07812 73.0952 2.85938C73.1704 2.41504 73.3516 2.03906 73.6387 1.73145C73.9668 1.38281 74.3838 1.16064 74.8896 1.06494C75.1289 1.02393 75.6143 1.00342 76.3457 1.00342H79.104C79.856 1.00342 80.2935 1.01025 80.4165 1.02393C80.9087 1.07178 81.312 1.21533 81.6265 1.45459C82.187 1.87842 82.4673 2.43213 82.4673 3.11572C82.4673 3.854 82.2212 4.41797 81.729 4.80762C81.2915 5.15625 80.6934 5.33057 79.9346 5.33057H77.6582V6.28418H79.4731C80.0063 6.28418 80.4473 6.42432 80.7959 6.70459C81.165 7.00537 81.3496 7.41895 81.3496 7.94531C81.3496 9.05957 80.6694 9.6167 79.3091 9.6167H77.6582V10.6729ZM98.5762 7.51465C99.123 8.04785 99.4956 8.52637 99.6938 8.9502C99.9741 9.55176 100.114 10.1841 100.114 10.8472C100.114 12.0913 99.6426 13.1338 98.6992 13.9746C98.1934 14.4258 97.6772 14.7197 97.1509 14.8564C96.7681 14.9521 96.1665 15 95.3462 15H91.665C90.7832 15 90.127 14.771 89.6963 14.313C89.3887 13.9849 89.2007 13.626 89.1323 13.2363C89.0981 13.0518 89.0811 12.6313 89.0811 11.9751L89.0708 3.36182C89.0571 2.51416 89.3989 1.86133 90.0962 1.40332C90.4243 1.18457 90.8857 1.05469 91.4805 1.01367C91.6104 1 92.0957 0.996582 92.9365 1.00342C92.9365 1.00342 93.1519 1.00342 93.5825 1.00342C94.7036 1.00342 95.5103 1.06152 96.0024 1.17773C97.1099 1.44434 97.9507 2.02881 98.5249 2.93115C98.9966 3.67627 99.2324 4.48291 99.2324 5.35107C99.2324 6.02783 99.0137 6.74902 98.5762 7.51465ZM108.256 9.16553V12.2622C108.256 13.0415 108.133 13.626 107.887 14.0156C107.429 14.7402 106.776 15.1025 105.928 15.1025C105.108 15.1025 104.469 14.7471 104.011 14.0361C103.758 13.6396 103.631 13.0449 103.631 12.252V9.16553L100.494 4.55127C100.186 4.1001 100.032 3.62842 100.032 3.13623C100.032 2.62354 100.203 2.15869 100.545 1.7417C101.003 1.18115 101.598 0.900879 102.329 0.900879C103.184 0.900879 103.857 1.26318 104.349 1.98779L105.979 4.37695L107.692 1.92627C108.17 1.24268 108.823 0.900879 109.65 0.900879C110.279 0.900879 110.819 1.12646 111.271 1.57764C111.729 2.02197 111.958 2.55859 111.958 3.1875C111.958 3.65918 111.811 4.10352 111.517 4.52051L108.256 9.16553ZM125.616 7.08398L127.943 2.13135C128.326 1.31104 129.006 0.900879 129.984 0.900879C131.269 0.900879 132.038 1.61865 132.291 3.0542L133.901 12.0776C133.949 12.3442 133.973 12.6074 133.973 12.8672C133.973 13.4961 133.75 14.0259 133.306 14.4565C132.869 14.8872 132.332 15.1025 131.696 15.1025C131.129 15.1025 130.633 14.9453 130.209 14.6309C129.786 14.3164 129.519 13.8857 129.41 13.3389L128.897 10.7139L127.984 13.1953C127.52 14.4668 126.73 15.1025 125.616 15.1025C124.515 15.1025 123.732 14.4736 123.268 13.2158L122.345 10.7139L121.965 12.9492C121.856 13.5986 121.613 14.1011 121.237 14.4565C120.786 14.8872 120.26 15.1025 119.658 15.1025C118.831 15.1025 118.192 14.7778 117.741 14.1284C117.46 13.7251 117.32 13.2124 117.32 12.5903C117.32 12.4058 117.337 12.2178 117.372 12.0264L118.951 3.0542C119.06 2.42529 119.306 1.91943 119.689 1.53662C120.099 1.11279 120.612 0.900879 121.227 0.900879C121.726 0.900879 122.184 1.04443 122.601 1.33154C123.025 1.61182 123.339 1.98096 123.544 2.43896L125.616 7.08398ZM138.854 13.1851C138.635 13.7046 138.409 14.0908 138.177 14.3438C137.712 14.8496 137.148 15.1025 136.485 15.1025C135.671 15.1025 135.039 14.7744 134.588 14.1182C134.321 13.7285 134.188 13.291 134.188 12.8057C134.188 12.4023 134.284 11.9956 134.475 11.5854L138.854 2.26465C139.277 1.35547 139.985 0.900879 140.976 0.900879C141.981 0.900879 142.702 1.36914 143.14 2.30566L147.559 11.6982C147.737 12.0742 147.826 12.4468 147.826 12.8159C147.826 13.3628 147.648 13.8481 147.292 14.272C146.828 14.8257 146.233 15.1025 145.508 15.1025C144.914 15.1025 144.418 14.918 144.021 14.5488C143.728 14.2754 143.434 13.8208 143.14 13.1851H138.854ZM157.823 9.60645L158.91 11.3496C159.211 11.835 159.361 12.334 159.361 12.8467C159.361 13.4961 159.136 14.0361 158.685 14.4668C158.24 14.8906 157.693 15.1025 157.044 15.1025C156.21 15.1025 155.578 14.7471 155.147 14.0361L153.219 10.8779V12.7749C153.219 13.4243 153.004 13.9746 152.573 14.4258C152.149 14.877 151.613 15.1025 150.963 15.1025C150.17 15.1025 149.569 14.8188 149.159 14.2515C148.79 13.7524 148.605 13.0962 148.605 12.2827V3.65918C148.605 1.88867 149.559 1.00342 151.466 1.00342H154.398C155.362 1.00342 156.258 1.28369 157.085 1.84424C157.912 2.39795 158.517 3.11914 158.9 4.00781C159.187 4.67773 159.331 5.35107 159.331 6.02783C159.331 7.29248 158.828 8.48535 157.823 9.60645ZM167.872 9.16553V12.2622C167.872 13.0415 167.749 13.626 167.503 14.0156C167.045 14.7402 166.392 15.1025 165.544 15.1025C164.724 15.1025 164.085 14.7471 163.627 14.0361C163.374 13.6396 163.248 13.0449 163.248 12.252V9.16553L160.11 4.55127C159.802 4.1001 159.648 3.62842 159.648 3.13623C159.648 2.62354 159.819 2.15869 160.161 1.7417C160.619 1.18115 161.214 0.900879 161.945 0.900879C162.8 0.900879 163.473 1.26318 163.965 1.98779L165.596 4.37695L167.308 1.92627C167.787 1.24268 168.439 0.900879 169.267 0.900879C169.896 0.900879 170.436 1.12646 170.887 1.57764C171.345 2.02197 171.574 2.55859 171.574 3.1875C171.574 3.65918 171.427 4.10352 171.133 4.52051L167.872 9.16553ZM178.844 0.624023C180.266 0.610352 181.571 0.98291 182.761 1.7417C183.95 2.49365 184.853 3.48828 185.468 4.72559C185.98 5.75098 186.237 6.83789 186.237 7.98633C186.237 9.27832 185.919 10.4883 185.283 11.6162C184.647 12.7441 183.779 13.6431 182.679 14.313C181.51 15.0239 180.218 15.3794 178.803 15.3794C177.429 15.3794 176.144 15.0103 174.947 14.272C173.758 13.5269 172.859 12.5356 172.25 11.2983C171.738 10.2593 171.481 9.11768 171.481 7.87354C171.481 6.84814 171.704 5.85693 172.148 4.8999C172.756 3.58057 173.666 2.53809 174.875 1.77246C176.058 1.02051 177.381 0.637695 178.844 0.624023ZM192.266 10.6729H194.532C195.229 10.6729 195.78 10.8164 196.183 11.1035C196.771 11.5273 197.065 12.1016 197.065 12.8262C197.065 13.4824 196.826 14.0293 196.347 14.4668C195.964 14.8223 195.394 15 194.635 15H190.236C189.375 15 188.722 14.7573 188.277 14.272C187.956 13.9165 187.758 13.4619 187.683 12.9082C187.662 12.7305 187.652 12.2212 187.652 11.3804V3.48486C187.652 2.73975 187.847 2.13135 188.236 1.65967C188.653 1.15381 189.224 0.900879 189.949 0.900879C190.714 0.900879 191.312 1.18115 191.743 1.7417C192.092 2.19287 192.266 2.96191 192.266 4.04883V10.6729ZM204.355 0.624023C205.777 0.610352 207.083 0.98291 208.272 1.7417C209.462 2.49365 210.364 3.48828 210.979 4.72559C211.492 5.75098 211.749 6.83789 211.749 7.98633C211.749 9.27832 211.431 10.4883 210.795 11.6162C210.159 12.7441 209.291 13.6431 208.19 14.313C207.021 15.0239 205.729 15.3794 204.314 15.3794C202.94 15.3794 201.655 15.0103 200.459 14.272C199.27 13.5269 198.371 12.5356 197.762 11.2983C197.25 10.2593 196.993 9.11768 196.993 7.87354C196.993 6.84814 197.215 5.85693 197.66 4.8999C198.268 3.58057 199.177 2.53809 200.387 1.77246C201.57 1.02051 202.893 0.637695 204.355 0.624023Z" fill="#F0A519"/>
</svg>
