<svg width="179" height="29" viewBox="0 0 179 29" fill="none" xmlns="http://www.w3.org/2000/svg">
<path d="M15.8595 12.9219L20.293 3.48828C21.0222 1.92578 22.3178 1.14453 24.1798 1.14453C26.6277 1.14453 28.0925 2.51172 28.5743 5.24609L31.6407 22.4336C31.7318 22.9414 31.7774 23.4427 31.7774 23.9375C31.7774 25.1354 31.3542 26.1445 30.5079 26.9648C29.6746 27.7852 28.6524 28.1953 27.4415 28.1953C26.3608 28.1953 25.4167 27.8958 24.6095 27.2969C23.8022 26.6979 23.2943 25.8776 23.086 24.8359L22.1095 19.8359L20.3712 24.5625C19.4858 26.9844 17.9818 28.1953 15.8595 28.1953C13.7631 28.1953 12.2722 26.9974 11.3868 24.6016L9.62898 19.8359L8.90633 24.0938C8.69799 25.3307 8.23575 26.2878 7.51961 26.9648C6.66023 27.7852 5.65763 28.1953 4.5118 28.1953C2.93627 28.1953 1.71883 27.5768 0.859451 26.3398C0.325597 25.5716 0.05867 24.5951 0.05867 23.4102C0.05867 23.0586 0.0912221 22.7005 0.156326 22.3359L3.16414 5.24609C3.37247 4.04818 3.84122 3.08464 4.57039 2.35547C5.35164 1.54818 6.3282 1.14453 7.50008 1.14453C8.4506 1.14453 9.32299 1.41797 10.1173 1.96484C10.9246 2.4987 11.5235 3.20182 11.9141 4.07422L15.8595 12.9219ZM43.2423 6.59375V23.1367C43.2423 24.569 42.8712 25.7474 42.129 26.6719C41.3347 27.6875 40.2345 28.1953 38.8282 28.1953C37.5391 28.1953 36.4519 27.7201 35.5665 26.7695C34.8243 25.9753 34.4532 24.7643 34.4532 23.1367V6.59375C34.4532 4.74479 34.8243 3.40365 35.5665 2.57031C36.4128 1.61979 37.5001 1.14453 38.8282 1.14453C40.1563 1.14453 41.2436 1.61328 42.0899 2.55078C42.8581 3.41016 43.2423 4.75781 43.2423 6.59375ZM51.4063 14.25L47.6954 9.30859C46.5235 7.74609 45.9376 6.47656 45.9376 5.5C45.9376 4.51042 46.2696 3.61198 46.9337 2.80469C47.8321 1.69792 48.9975 1.14453 50.4298 1.14453C51.8751 1.14453 53.1055 1.80859 54.1212 3.13672L56.9727 6.88672L59.629 3.50781C60.866 1.93229 62.168 1.14453 63.5352 1.14453C65.0587 1.14453 66.2826 1.77604 67.2071 3.03906C67.754 3.79427 68.0274 4.60807 68.0274 5.48047C68.0274 6.48307 67.5522 7.60938 66.6016 8.85938L62.5196 14.25L67.5196 20.9102C68.1576 21.7565 68.4766 22.7266 68.4766 23.8203C68.4766 24.8099 68.1837 25.6953 67.5977 26.4766C66.7384 27.6224 65.5925 28.1953 64.1602 28.1953C62.7149 28.1953 61.517 27.5703 60.5665 26.3203L56.9727 21.5938L53.3595 26.2812C52.3699 27.5573 51.1785 28.1953 49.7852 28.1953C48.5743 28.1953 47.5326 27.7721 46.6602 26.9258C45.8009 26.0664 45.3712 25.0312 45.3712 23.8203C45.3712 22.7135 45.7097 21.7174 46.3868 20.832L51.4063 14.25ZM75.2735 9.52344H72.9493C71.6602 9.52344 70.5925 9.17188 69.7462 8.46875C68.8477 7.71354 68.3985 6.70443 68.3985 5.44141C68.3985 4.6862 68.6068 3.96354 69.0235 3.27344C69.4532 2.57031 70.0001 2.07552 70.6641 1.78906C71.3412 1.48958 72.9363 1.33984 75.4493 1.33984H84.3165C86.491 1.33984 87.8972 1.47005 88.5352 1.73047C89.2384 2.01693 89.8048 2.51172 90.2345 3.21484C90.6772 3.90495 90.8985 4.63411 90.8985 5.40234C90.8985 6.61328 90.4167 7.66797 89.4532 8.56641C88.7631 9.20443 87.6368 9.52344 86.0743 9.52344H84.0626V22.8047C84.0626 24.25 83.8152 25.3698 83.3204 26.1641C82.4871 27.4922 81.2826 28.1562 79.7071 28.1562C78.1316 28.1562 76.9206 27.5508 76.0743 26.3398C75.5404 25.5846 75.2735 24.4388 75.2735 22.9023V9.52344ZM97.4024 24.543C96.9858 25.5326 96.5561 26.2682 96.1134 26.75C95.2279 27.7135 94.1537 28.1953 92.8907 28.1953C91.3412 28.1953 90.1368 27.5703 89.2774 26.3203C88.7696 25.5781 88.5157 24.7448 88.5157 23.8203C88.5157 23.0521 88.698 22.2773 89.0626 21.4961L97.4024 3.74219C98.2097 2.01042 99.5574 1.14453 101.445 1.14453C103.359 1.14453 104.733 2.03646 105.566 3.82031L113.984 21.7109C114.323 22.4271 114.492 23.1367 114.492 23.8398C114.492 24.8815 114.154 25.806 113.477 26.6133C112.591 27.668 111.458 28.1953 110.078 28.1953C108.945 28.1953 108.001 27.8438 107.246 27.1406C106.686 26.6198 106.126 25.7539 105.566 24.543H97.4024ZM124.766 20.5195V23.1172C124.766 24.5625 124.408 25.7474 123.691 26.6719C122.91 27.6875 121.816 28.1953 120.41 28.1953C118.809 28.1953 117.585 27.5247 116.738 26.1836C116.348 25.5716 116.113 24.901 116.035 24.1719C115.996 23.8724 115.977 23.1432 115.977 21.9844V6.41797C115.977 4.73828 116.38 3.48828 117.188 2.66797C118.06 1.78255 119.251 1.33984 120.762 1.33984H124.473C126.83 1.33984 128.542 1.5026 129.609 1.82812C131.628 2.4401 133.255 3.58594 134.492 5.26562C135.742 6.94531 136.367 8.83984 136.367 10.9492C136.367 12.9284 135.801 14.7383 134.668 16.3789C132.754 19.1393 129.961 20.5195 126.289 20.5195H124.766ZM147.598 19.7578H151.602C153.255 19.7578 154.486 20.0964 155.293 20.7734C156.244 21.5807 156.719 22.6224 156.719 23.8984C156.719 25.2005 156.244 26.2552 155.293 27.0625C154.551 27.6875 153.333 28 151.641 28H144.785C143.171 28 142.064 27.8763 141.465 27.6289C140.293 27.1471 139.518 26.3594 139.141 25.2656C138.906 24.5625 138.789 23.4102 138.789 21.8086V7.31641C138.789 6.10547 138.828 5.29167 138.906 4.875C139.05 4.02865 139.395 3.3125 139.941 2.72656C140.566 2.0625 141.361 1.63932 142.324 1.45703C142.78 1.37891 143.705 1.33984 145.098 1.33984H150.352C151.784 1.33984 152.617 1.35286 152.852 1.37891C153.789 1.47005 154.557 1.74349 155.156 2.19922C156.224 3.00651 156.758 4.0612 156.758 5.36328C156.758 6.76953 156.289 7.84375 155.352 8.58594C154.518 9.25 153.379 9.58203 151.934 9.58203H147.598V11.3984H151.055C152.07 11.3984 152.91 11.6654 153.574 12.1992C154.277 12.7721 154.629 13.5599 154.629 14.5625C154.629 16.6849 153.333 17.7461 150.742 17.7461H147.598V19.7578ZM162.539 17.9219C163.516 17.9219 164.557 18.3516 165.664 19.2109C167.044 20.2917 167.988 20.832 168.496 20.832C169.251 20.832 169.629 20.4414 169.629 19.6602C169.629 19.2305 169.408 18.8659 168.965 18.5664C168.731 18.4102 167.415 17.9089 165.02 17.0625C161.1 15.6823 159.141 13.1302 159.141 9.40625C159.141 6.59375 160.176 4.3737 162.246 2.74609C164.056 1.32682 166.296 0.617188 168.965 0.617188C171.27 0.617188 173.275 1.17057 174.981 2.27734C176.686 3.37109 177.539 4.78385 177.539 6.51562C177.539 7.55729 177.214 8.42969 176.563 9.13281C175.925 9.82292 175.091 10.168 174.063 10.168C172.982 10.168 171.784 9.65365 170.469 8.625C169.649 7.98698 169.03 7.66797 168.613 7.66797C167.897 7.66797 167.539 8.01953 167.539 8.72266C167.539 9.38672 168.425 9.99219 170.195 10.5391C172.643 11.3073 174.538 12.2448 175.879 13.3516C177.663 14.8359 178.555 16.9193 178.555 19.6016C178.555 22.5182 177.552 24.7969 175.547 26.4375C173.685 27.9609 171.263 28.7227 168.281 28.7227C165.3 28.7227 162.832 27.9284 160.879 26.3398C159.316 25.0768 158.535 23.599 158.535 21.9062C158.535 20.7734 158.919 19.8294 159.688 19.0742C160.456 18.319 161.406 17.9349 162.539 17.9219Z" fill="#481121"/>
</svg>
