<svg width="206" height="16" viewBox="0 0 206 16" fill="none" xmlns="http://www.w3.org/2000/svg">
<path d="M8.52051 7.08398L10.8481 2.13135C11.231 1.31104 11.9111 0.900879 12.8887 0.900879C14.1738 0.900879 14.9429 1.61865 15.1958 3.0542L16.8057 12.0776C16.8535 12.3442 16.8774 12.6074 16.8774 12.8672C16.8774 13.4961 16.6553 14.0259 16.2109 14.4565C15.7734 14.8872 15.2368 15.1025 14.6011 15.1025C14.0337 15.1025 13.5381 14.9453 13.1143 14.6309C12.6904 14.3164 12.4238 13.8857 12.3145 13.3389L11.8018 10.7139L10.8892 13.1953C10.4243 14.4668 9.63477 15.1025 8.52051 15.1025C7.41992 15.1025 6.63721 14.4736 6.17236 13.2158L5.24951 10.7139L4.87012 12.9492C4.76074 13.5986 4.51807 14.1011 4.14209 14.4565C3.69092 14.8872 3.16455 15.1025 2.56299 15.1025C1.73584 15.1025 1.09668 14.7778 0.645508 14.1284C0.365234 13.7251 0.225098 13.2124 0.225098 12.5903C0.225098 12.4058 0.242188 12.2178 0.276367 12.0264L1.85547 3.0542C1.96484 2.42529 2.21094 1.91943 2.59375 1.53662C3.00391 1.11279 3.5166 0.900879 4.13184 0.900879C4.63086 0.900879 5.08887 1.04443 5.50586 1.33154C5.92969 1.61182 6.24414 1.98096 6.44922 2.43896L8.52051 7.08398ZM22.8965 3.76172V12.4468C22.8965 13.1987 22.7017 13.8174 22.312 14.3027C21.895 14.8359 21.3174 15.1025 20.5791 15.1025C19.9023 15.1025 19.3315 14.853 18.8667 14.354C18.4771 13.937 18.2822 13.3013 18.2822 12.4468V3.76172C18.2822 2.79102 18.4771 2.08691 18.8667 1.64941C19.311 1.15039 19.8818 0.900879 20.5791 0.900879C21.2764 0.900879 21.8472 1.14697 22.2915 1.63916C22.6948 2.09033 22.8965 2.79785 22.8965 3.76172ZM27.1826 7.78125L25.2344 5.18701C24.6191 4.3667 24.3115 3.7002 24.3115 3.1875C24.3115 2.66797 24.4858 2.19629 24.8345 1.77246C25.3062 1.19141 25.918 0.900879 26.6699 0.900879C27.4287 0.900879 28.0747 1.24951 28.6079 1.94678L30.105 3.91553L31.4995 2.1416C32.1489 1.31445 32.8325 0.900879 33.5503 0.900879C34.3501 0.900879 34.9927 1.23242 35.478 1.89551C35.7651 2.29199 35.9087 2.71924 35.9087 3.17725C35.9087 3.70361 35.6592 4.29492 35.1602 4.95117L33.0171 7.78125L35.6421 11.2778C35.9771 11.7222 36.1445 12.2314 36.1445 12.8057C36.1445 13.3252 35.9907 13.79 35.6831 14.2002C35.2319 14.8018 34.6304 15.1025 33.8784 15.1025C33.1196 15.1025 32.4907 14.7744 31.9917 14.1182L30.105 11.6367L28.208 14.0977C27.6885 14.7676 27.063 15.1025 26.3315 15.1025C25.6958 15.1025 25.1489 14.8804 24.6909 14.436C24.2397 13.9849 24.0142 13.4414 24.0142 12.8057C24.0142 12.2246 24.1919 11.7017 24.5474 11.2368L27.1826 7.78125ZM39.7129 5.2998H38.4927C37.8159 5.2998 37.2554 5.11523 36.811 4.74609C36.3394 4.34961 36.1035 3.81982 36.1035 3.15674C36.1035 2.76025 36.2129 2.38086 36.4316 2.01855C36.6572 1.64941 36.9443 1.38965 37.293 1.23926C37.6484 1.08203 38.4858 1.00342 39.8052 1.00342H44.4604C45.6021 1.00342 46.3403 1.07178 46.6753 1.2085C47.0444 1.35889 47.3418 1.61865 47.5674 1.98779C47.7998 2.3501 47.916 2.73291 47.916 3.13623C47.916 3.77197 47.6631 4.32568 47.1572 4.79736C46.7949 5.13232 46.2036 5.2998 45.3833 5.2998H44.3271V12.2725C44.3271 13.0312 44.1973 13.6191 43.9375 14.0361C43.5 14.7334 42.8677 15.082 42.0405 15.082C41.2134 15.082 40.5776 14.7642 40.1333 14.1284C39.853 13.7319 39.7129 13.1304 39.7129 12.3237V5.2998ZM51.3306 13.1851C51.1118 13.7046 50.8862 14.0908 50.6538 14.3438C50.189 14.8496 49.625 15.1025 48.9619 15.1025C48.1484 15.1025 47.5161 14.7744 47.0649 14.1182C46.7983 13.7285 46.665 13.291 46.665 12.8057C46.665 12.4023 46.7607 11.9956 46.9521 11.5854L51.3306 2.26465C51.7544 1.35547 52.4619 0.900879 53.4531 0.900879C54.458 0.900879 55.1792 1.36914 55.6167 2.30566L60.0361 11.6982C60.2139 12.0742 60.3027 12.4468 60.3027 12.8159C60.3027 13.3628 60.125 13.8481 59.7695 14.272C59.3047 14.8257 58.71 15.1025 57.9854 15.1025C57.3906 15.1025 56.895 14.918 56.4985 14.5488C56.2046 14.2754 55.9106 13.8208 55.6167 13.1851H51.3306ZM65.6963 11.0728V12.4365C65.6963 13.1953 65.5083 13.8174 65.1323 14.3027C64.7222 14.8359 64.1479 15.1025 63.4097 15.1025C62.5688 15.1025 61.9263 14.7505 61.4819 14.0464C61.2769 13.7251 61.1538 13.373 61.1128 12.9902C61.0923 12.833 61.082 12.4502 61.082 11.8418V3.66943C61.082 2.7876 61.2939 2.13135 61.7178 1.70068C62.1758 1.23584 62.8013 1.00342 63.5942 1.00342H65.5425C66.7798 1.00342 67.6787 1.08887 68.2393 1.25977C69.2988 1.58105 70.1533 2.18262 70.8027 3.06445C71.459 3.94629 71.7871 4.94092 71.7871 6.04834C71.7871 7.0874 71.4897 8.0376 70.895 8.89893C69.8901 10.3481 68.4238 11.0728 66.4961 11.0728H65.6963ZM77.6831 10.6729H79.7852C80.6533 10.6729 81.2993 10.8506 81.7231 11.2061C82.2222 11.6299 82.4717 12.1768 82.4717 12.8467C82.4717 13.5303 82.2222 14.084 81.7231 14.5078C81.3335 14.8359 80.6943 15 79.8057 15H76.2065C75.3589 15 74.7778 14.9351 74.4634 14.8052C73.8481 14.5522 73.4414 14.1387 73.2432 13.5645C73.1201 13.1953 73.0586 12.5903 73.0586 11.7495V4.14111C73.0586 3.50537 73.0791 3.07812 73.1201 2.85938C73.1953 2.41504 73.3765 2.03906 73.6636 1.73145C73.9917 1.38281 74.4087 1.16064 74.9146 1.06494C75.1538 1.02393 75.6392 1.00342 76.3706 1.00342H79.1289C79.8809 1.00342 80.3184 1.01025 80.4414 1.02393C80.9336 1.07178 81.3369 1.21533 81.6514 1.45459C82.2119 1.87842 82.4922 2.43213 82.4922 3.11572C82.4922 3.854 82.2461 4.41797 81.7539 4.80762C81.3164 5.15625 80.7183 5.33057 79.9595 5.33057H77.6831V6.28418H79.498C80.0312 6.28418 80.4722 6.42432 80.8208 6.70459C81.1899 7.00537 81.3745 7.41895 81.3745 7.94531C81.3745 9.05957 80.6943 9.6167 79.334 9.6167H77.6831V10.6729ZM98.6011 7.51465C99.1479 8.04785 99.5205 8.52637 99.7188 8.9502C99.999 9.55176 100.139 10.1841 100.139 10.8472C100.139 12.0913 99.6675 13.1338 98.7241 13.9746C98.2183 14.4258 97.7021 14.7197 97.1758 14.8564C96.793 14.9521 96.1914 15 95.3711 15H91.6899C90.8081 15 90.1519 14.771 89.7212 14.313C89.4136 13.9849 89.2256 13.626 89.1572 13.2363C89.123 13.0518 89.106 12.6313 89.106 11.9751L89.0957 3.36182C89.082 2.51416 89.4238 1.86133 90.1211 1.40332C90.4492 1.18457 90.9106 1.05469 91.5054 1.01367C91.6353 1 92.1206 0.996582 92.9614 1.00342C92.9614 1.00342 93.1768 1.00342 93.6074 1.00342C94.7285 1.00342 95.5352 1.06152 96.0273 1.17773C97.1348 1.44434 97.9756 2.02881 98.5498 2.93115C99.0215 3.67627 99.2573 4.48291 99.2573 5.35107C99.2573 6.02783 99.0386 6.74902 98.6011 7.51465ZM108.281 9.16553V12.2622C108.281 13.0415 108.158 13.626 107.912 14.0156C107.454 14.7402 106.801 15.1025 105.953 15.1025C105.133 15.1025 104.494 14.7471 104.036 14.0361C103.783 13.6396 103.656 13.0449 103.656 12.252V9.16553L100.519 4.55127C100.211 4.1001 100.057 3.62842 100.057 3.13623C100.057 2.62354 100.228 2.15869 100.57 1.7417C101.028 1.18115 101.623 0.900879 102.354 0.900879C103.208 0.900879 103.882 1.26318 104.374 1.98779L106.004 4.37695L107.717 1.92627C108.195 1.24268 108.848 0.900879 109.675 0.900879C110.304 0.900879 110.844 1.12646 111.295 1.57764C111.753 2.02197 111.982 2.55859 111.982 3.1875C111.982 3.65918 111.835 4.10352 111.542 4.52051L108.281 9.16553ZM125.764 6.3252V3.7207C125.764 2.9209 125.904 2.3125 126.184 1.89551C126.628 1.23242 127.264 0.900879 128.091 0.900879C128.802 0.900879 129.387 1.17773 129.845 1.73145C130.207 2.16895 130.388 2.78076 130.388 3.56689V12.1494C130.388 13.1064 130.221 13.8003 129.886 14.231C129.435 14.812 128.836 15.1025 128.091 15.1025C127.346 15.1025 126.731 14.7915 126.246 14.1694L122.564 9.47314V12.416C122.564 13.2295 122.397 13.8447 122.062 14.2617C121.611 14.8223 121.02 15.1025 120.288 15.1025C119.509 15.1025 118.894 14.8018 118.442 14.2002C118.114 13.7627 117.95 13.1064 117.95 12.2314V3.38232C117.95 2.63721 118.166 2.03906 118.596 1.58789C119.034 1.12988 119.625 0.900879 120.37 0.900879C121.013 0.900879 121.583 1.20508 122.083 1.81348L125.764 6.3252ZM139.309 0.624023C140.731 0.610352 142.037 0.98291 143.226 1.7417C144.416 2.49365 145.318 3.48828 145.933 4.72559C146.446 5.75098 146.702 6.83789 146.702 7.98633C146.702 9.27832 146.384 10.4883 145.749 11.6162C145.113 12.7441 144.245 13.6431 143.144 14.313C141.975 15.0239 140.683 15.3794 139.268 15.3794C137.894 15.3794 136.609 15.0103 135.413 14.272C134.223 13.5269 133.324 12.5356 132.716 11.2983C132.203 10.2593 131.947 9.11768 131.947 7.87354C131.947 6.84814 132.169 5.85693 132.613 4.8999C133.222 3.58057 134.131 2.53809 135.341 1.77246C136.523 1.02051 137.846 0.637695 139.309 0.624023ZM152.731 9.62695V11.8521C152.731 12.8706 152.605 13.5952 152.352 14.0259C151.928 14.7437 151.279 15.1025 150.404 15.1025C149.789 15.1025 149.276 14.9043 148.866 14.5078C148.456 14.1045 148.216 13.5952 148.148 12.98C148.127 12.7886 148.117 12.4058 148.117 11.8315V3.76172C148.117 3.05762 148.213 2.53125 148.404 2.18262C148.698 1.64941 149.129 1.3042 149.696 1.14697C150.031 1.05127 150.609 1.00342 151.429 1.00342H154.208C155.356 1.00342 156.132 1.11963 156.536 1.35205C157.206 1.73486 157.541 2.32275 157.541 3.11572C157.541 3.80615 157.291 4.37354 156.792 4.81787C156.402 5.15967 155.825 5.33057 155.059 5.33057H152.731V6.29443H154.157C154.833 6.29443 155.329 6.3833 155.644 6.56104C156.156 6.84814 156.413 7.30957 156.413 7.94531C156.413 9.06641 155.729 9.62695 154.362 9.62695H152.731ZM168.02 9.60645L169.107 11.3496C169.408 11.835 169.558 12.334 169.558 12.8467C169.558 13.4961 169.333 14.0361 168.881 14.4668C168.437 14.8906 167.89 15.1025 167.241 15.1025C166.407 15.1025 165.774 14.7471 165.344 14.0361L163.416 10.8779V12.7749C163.416 13.4243 163.201 13.9746 162.77 14.4258C162.346 14.877 161.81 15.1025 161.16 15.1025C160.367 15.1025 159.766 14.8188 159.355 14.2515C158.986 13.7524 158.802 13.0962 158.802 12.2827V3.65918C158.802 1.88867 159.755 1.00342 161.663 1.00342H164.595C165.559 1.00342 166.455 1.28369 167.282 1.84424C168.109 2.39795 168.714 3.11914 169.097 4.00781C169.384 4.67773 169.527 5.35107 169.527 6.02783C169.527 7.29248 169.025 8.48535 168.02 9.60645ZM174.603 13.1851C174.384 13.7046 174.159 14.0908 173.926 14.3438C173.461 14.8496 172.897 15.1025 172.234 15.1025C171.421 15.1025 170.789 14.7744 170.337 14.1182C170.071 13.7285 169.938 13.291 169.938 12.8057C169.938 12.4023 170.033 11.9956 170.225 11.5854L174.603 2.26465C175.027 1.35547 175.734 0.900879 176.726 0.900879C177.73 0.900879 178.452 1.36914 178.889 2.30566L183.309 11.6982C183.486 12.0742 183.575 12.4468 183.575 12.8159C183.575 13.3628 183.397 13.8481 183.042 14.272C182.577 14.8257 181.982 15.1025 181.258 15.1025C180.663 15.1025 180.167 14.918 179.771 14.5488C179.477 14.2754 179.183 13.8208 178.889 13.1851H174.603ZM189.912 9.11426V3.9873C189.912 2.96191 190.056 2.25098 190.343 1.85449C190.801 1.21875 191.437 0.900879 192.25 0.900879C193.091 0.900879 193.733 1.24268 194.178 1.92627C194.369 2.22021 194.485 2.54834 194.526 2.91064C194.533 2.99951 194.537 3.3584 194.537 3.9873V8.8374C194.537 9.83545 194.496 10.5464 194.414 10.9702C194.14 12.3921 193.398 13.5269 192.188 14.3745C191.238 15.0444 190.182 15.3794 189.02 15.3794C187.4 15.3794 186.046 14.7881 184.959 13.6055C183.996 12.5596 183.514 11.2061 183.514 9.54492C183.514 8.44434 183.739 7.63086 184.19 7.10449C184.607 6.61914 185.151 6.37646 185.821 6.37646C186.559 6.37646 187.137 6.61572 187.554 7.09424C187.971 7.56592 188.179 8.17432 188.179 8.91943C188.179 9.0835 188.176 9.30566 188.169 9.58594C188.169 9.61328 188.169 9.66113 188.169 9.72949C188.169 10.3994 188.459 10.7344 189.041 10.7344C189.437 10.7344 189.704 10.543 189.84 10.1602C189.888 10.0303 189.912 9.68164 189.912 9.11426ZM200.976 10.6729H203.078C203.946 10.6729 204.592 10.8506 205.016 11.2061C205.515 11.6299 205.765 12.1768 205.765 12.8467C205.765 13.5303 205.515 14.084 205.016 14.5078C204.626 14.8359 203.987 15 203.099 15H199.5C198.652 15 198.071 14.9351 197.756 14.8052C197.141 14.5522 196.734 14.1387 196.536 13.5645C196.413 13.1953 196.352 12.5903 196.352 11.7495V4.14111C196.352 3.50537 196.372 3.07812 196.413 2.85938C196.488 2.41504 196.669 2.03906 196.957 1.73145C197.285 1.38281 197.702 1.16064 198.208 1.06494C198.447 1.02393 198.932 1.00342 199.664 1.00342H202.422C203.174 1.00342 203.611 1.01025 203.734 1.02393C204.227 1.07178 204.63 1.21533 204.944 1.45459C205.505 1.87842 205.785 2.43213 205.785 3.11572C205.785 3.854 205.539 4.41797 205.047 4.80762C204.609 5.15625 204.011 5.33057 203.252 5.33057H200.976V6.28418H202.791C203.324 6.28418 203.765 6.42432 204.114 6.70459C204.483 7.00537 204.667 7.41895 204.667 7.94531C204.667 9.05957 203.987 9.6167 202.627 9.6167H200.976V10.6729Z" fill="#481121"/>
</svg>
