<svg width="182" height="16" viewBox="0 0 182 16" fill="none" xmlns="http://www.w3.org/2000/svg">
<path d="M8.56885 7.08398L10.8965 2.13135C11.2793 1.31104 11.9595 0.900879 12.937 0.900879C14.2222 0.900879 14.9912 1.61865 15.2441 3.0542L16.854 12.0776C16.9019 12.3442 16.9258 12.6074 16.9258 12.8672C16.9258 13.4961 16.7036 14.0259 16.2593 14.4565C15.8218 14.8872 15.2852 15.1025 14.6494 15.1025C14.082 15.1025 13.5864 14.9453 13.1626 14.6309C12.7388 14.3164 12.4722 13.8857 12.3628 13.3389L11.8501 10.7139L10.9375 13.1953C10.4727 14.4668 9.68311 15.1025 8.56885 15.1025C7.46826 15.1025 6.68555 14.4736 6.2207 13.2158L5.29785 10.7139L4.91846 12.9492C4.80908 13.5986 4.56641 14.1011 4.19043 14.4565C3.73926 14.8872 3.21289 15.1025 2.61133 15.1025C1.78418 15.1025 1.14502 14.7778 0.693848 14.1284C0.413574 13.7251 0.273438 13.2124 0.273438 12.5903C0.273438 12.4058 0.290527 12.2178 0.324707 12.0264L1.90381 3.0542C2.01318 2.42529 2.25928 1.91943 2.64209 1.53662C3.05225 1.11279 3.56494 0.900879 4.18018 0.900879C4.6792 0.900879 5.13721 1.04443 5.5542 1.33154C5.97803 1.61182 6.29248 1.98096 6.49756 2.43896L8.56885 7.08398ZM22.9448 3.76172V12.4468C22.9448 13.1987 22.75 13.8174 22.3604 14.3027C21.9434 14.8359 21.3657 15.1025 20.6274 15.1025C19.9507 15.1025 19.3799 14.853 18.915 14.354C18.5254 13.937 18.3306 13.3013 18.3306 12.4468V3.76172C18.3306 2.79102 18.5254 2.08691 18.915 1.64941C19.3594 1.15039 19.9302 0.900879 20.6274 0.900879C21.3247 0.900879 21.8955 1.14697 22.3398 1.63916C22.7432 2.09033 22.9448 2.79785 22.9448 3.76172ZM27.231 7.78125L25.2827 5.18701C24.6675 4.3667 24.3599 3.7002 24.3599 3.1875C24.3599 2.66797 24.5342 2.19629 24.8828 1.77246C25.3545 1.19141 25.9663 0.900879 26.7183 0.900879C27.4771 0.900879 28.123 1.24951 28.6562 1.94678L30.1533 3.91553L31.5479 2.1416C32.1973 1.31445 32.8809 0.900879 33.5986 0.900879C34.3984 0.900879 35.041 1.23242 35.5264 1.89551C35.8135 2.29199 35.957 2.71924 35.957 3.17725C35.957 3.70361 35.7075 4.29492 35.2085 4.95117L33.0654 7.78125L35.6904 11.2778C36.0254 11.7222 36.1929 12.2314 36.1929 12.8057C36.1929 13.3252 36.0391 13.79 35.7314 14.2002C35.2803 14.8018 34.6787 15.1025 33.9268 15.1025C33.168 15.1025 32.5391 14.7744 32.04 14.1182L30.1533 11.6367L28.2563 14.0977C27.7368 14.7676 27.1113 15.1025 26.3799 15.1025C25.7441 15.1025 25.1973 14.8804 24.7393 14.436C24.2881 13.9849 24.0625 13.4414 24.0625 12.8057C24.0625 12.2246 24.2402 11.7017 24.5957 11.2368L27.231 7.78125ZM39.7612 5.2998H38.541C37.8643 5.2998 37.3037 5.11523 36.8594 4.74609C36.3877 4.34961 36.1519 3.81982 36.1519 3.15674C36.1519 2.76025 36.2612 2.38086 36.48 2.01855C36.7056 1.64941 36.9927 1.38965 37.3413 1.23926C37.6968 1.08203 38.5342 1.00342 39.8535 1.00342H44.5088C45.6504 1.00342 46.3887 1.07178 46.7236 1.2085C47.0928 1.35889 47.3901 1.61865 47.6157 1.98779C47.8481 2.3501 47.9644 2.73291 47.9644 3.13623C47.9644 3.77197 47.7114 4.32568 47.2056 4.79736C46.8433 5.13232 46.252 5.2998 45.4316 5.2998H44.3755V12.2725C44.3755 13.0312 44.2456 13.6191 43.9858 14.0361C43.5483 14.7334 42.916 15.082 42.0889 15.082C41.2617 15.082 40.626 14.7642 40.1816 14.1284C39.9014 13.7319 39.7612 13.1304 39.7612 12.3237V5.2998ZM51.3789 13.1851C51.1602 13.7046 50.9346 14.0908 50.7021 14.3438C50.2373 14.8496 49.6733 15.1025 49.0103 15.1025C48.1968 15.1025 47.5645 14.7744 47.1133 14.1182C46.8467 13.7285 46.7134 13.291 46.7134 12.8057C46.7134 12.4023 46.8091 11.9956 47.0005 11.5854L51.3789 2.26465C51.8027 1.35547 52.5103 0.900879 53.5015 0.900879C54.5063 0.900879 55.2275 1.36914 55.665 2.30566L60.0845 11.6982C60.2622 12.0742 60.3511 12.4468 60.3511 12.8159C60.3511 13.3628 60.1733 13.8481 59.8179 14.272C59.353 14.8257 58.7583 15.1025 58.0337 15.1025C57.439 15.1025 56.9434 14.918 56.5469 14.5488C56.2529 14.2754 55.959 13.8208 55.665 13.1851H51.3789ZM65.7446 11.0728V12.4365C65.7446 13.1953 65.5566 13.8174 65.1807 14.3027C64.7705 14.8359 64.1963 15.1025 63.458 15.1025C62.6172 15.1025 61.9746 14.7505 61.5303 14.0464C61.3252 13.7251 61.2021 13.373 61.1611 12.9902C61.1406 12.833 61.1304 12.4502 61.1304 11.8418V3.66943C61.1304 2.7876 61.3423 2.13135 61.7661 1.70068C62.2241 1.23584 62.8496 1.00342 63.6426 1.00342H65.5908C66.8281 1.00342 67.7271 1.08887 68.2876 1.25977C69.3472 1.58105 70.2017 2.18262 70.8511 3.06445C71.5073 3.94629 71.8354 4.94092 71.8354 6.04834C71.8354 7.0874 71.5381 8.0376 70.9434 8.89893C69.9385 10.3481 68.4722 11.0728 66.5444 11.0728H65.7446ZM77.7314 10.6729H79.8335C80.7017 10.6729 81.3477 10.8506 81.7715 11.2061C82.2705 11.6299 82.52 12.1768 82.52 12.8467C82.52 13.5303 82.2705 14.084 81.7715 14.5078C81.3818 14.8359 80.7427 15 79.854 15H76.2549C75.4072 15 74.8262 14.9351 74.5117 14.8052C73.8965 14.5522 73.4897 14.1387 73.2915 13.5645C73.1685 13.1953 73.1069 12.5903 73.1069 11.7495V4.14111C73.1069 3.50537 73.1274 3.07812 73.1685 2.85938C73.2437 2.41504 73.4248 2.03906 73.7119 1.73145C74.04 1.38281 74.457 1.16064 74.9629 1.06494C75.2021 1.02393 75.6875 1.00342 76.4189 1.00342H79.1772C79.9292 1.00342 80.3667 1.01025 80.4897 1.02393C80.9819 1.07178 81.3853 1.21533 81.6997 1.45459C82.2603 1.87842 82.5405 2.43213 82.5405 3.11572C82.5405 3.854 82.2944 4.41797 81.8022 4.80762C81.3647 5.15625 80.7666 5.33057 80.0078 5.33057H77.7314V6.28418H79.5464C80.0796 6.28418 80.5205 6.42432 80.8691 6.70459C81.2383 7.00537 81.4229 7.41895 81.4229 7.94531C81.4229 9.05957 80.7427 9.6167 79.3823 9.6167H77.7314V10.6729ZM98.6494 7.51465C99.1963 8.04785 99.5688 8.52637 99.7671 8.9502C100.047 9.55176 100.188 10.1841 100.188 10.8472C100.188 12.0913 99.7158 13.1338 98.7725 13.9746C98.2666 14.4258 97.7505 14.7197 97.2241 14.8564C96.8413 14.9521 96.2397 15 95.4194 15H91.7383C90.8564 15 90.2002 14.771 89.7695 14.313C89.4619 13.9849 89.2739 13.626 89.2056 13.2363C89.1714 13.0518 89.1543 12.6313 89.1543 11.9751L89.144 3.36182C89.1304 2.51416 89.4722 1.86133 90.1694 1.40332C90.4976 1.18457 90.959 1.05469 91.5537 1.01367C91.6836 1 92.1689 0.996582 93.0098 1.00342C93.0098 1.00342 93.2251 1.00342 93.6558 1.00342C94.7769 1.00342 95.5835 1.06152 96.0757 1.17773C97.1831 1.44434 98.0239 2.02881 98.5981 2.93115C99.0698 3.67627 99.3057 4.48291 99.3057 5.35107C99.3057 6.02783 99.0869 6.74902 98.6494 7.51465ZM108.329 9.16553V12.2622C108.329 13.0415 108.206 13.626 107.96 14.0156C107.502 14.7402 106.849 15.1025 106.001 15.1025C105.181 15.1025 104.542 14.7471 104.084 14.0361C103.831 13.6396 103.705 13.0449 103.705 12.252V9.16553L100.567 4.55127C100.259 4.1001 100.105 3.62842 100.105 3.13623C100.105 2.62354 100.276 2.15869 100.618 1.7417C101.076 1.18115 101.671 0.900879 102.402 0.900879C103.257 0.900879 103.93 1.26318 104.422 1.98779L106.053 4.37695L107.765 1.92627C108.244 1.24268 108.896 0.900879 109.724 0.900879C110.353 0.900879 110.893 1.12646 111.344 1.57764C111.802 2.02197 112.031 2.55859 112.031 3.1875C112.031 3.65918 111.884 4.10352 111.59 4.52051L108.329 9.16553ZM120.48 5.2998H119.26C118.583 5.2998 118.022 5.11523 117.578 4.74609C117.106 4.34961 116.871 3.81982 116.871 3.15674C116.871 2.76025 116.98 2.38086 117.199 2.01855C117.424 1.64941 117.711 1.38965 118.06 1.23926C118.416 1.08203 119.253 1.00342 120.572 1.00342H125.228C126.369 1.00342 127.107 1.07178 127.442 1.2085C127.812 1.35889 128.109 1.61865 128.334 1.98779C128.567 2.3501 128.683 2.73291 128.683 3.13623C128.683 3.77197 128.43 4.32568 127.924 4.79736C127.562 5.13232 126.971 5.2998 126.15 5.2998H125.094V12.2725C125.094 13.0312 124.964 13.6191 124.705 14.0361C124.267 14.7334 123.635 15.082 122.808 15.082C121.98 15.082 121.345 14.7642 120.9 14.1284C120.62 13.7319 120.48 13.1304 120.48 12.3237V5.2998ZM132.098 13.1851C131.879 13.7046 131.653 14.0908 131.421 14.3438C130.956 14.8496 130.392 15.1025 129.729 15.1025C128.916 15.1025 128.283 14.7744 127.832 14.1182C127.565 13.7285 127.432 13.291 127.432 12.8057C127.432 12.4023 127.528 11.9956 127.719 11.5854L132.098 2.26465C132.521 1.35547 133.229 0.900879 134.22 0.900879C135.225 0.900879 135.946 1.36914 136.384 2.30566L140.803 11.6982C140.981 12.0742 141.07 12.4468 141.07 12.8159C141.07 13.3628 140.892 13.8481 140.537 14.272C140.072 14.8257 139.477 15.1025 138.752 15.1025C138.158 15.1025 137.662 14.918 137.266 14.5488C136.972 14.2754 136.678 13.8208 136.384 13.1851H132.098ZM149.663 6.3252V3.7207C149.663 2.9209 149.803 2.3125 150.083 1.89551C150.527 1.23242 151.163 0.900879 151.99 0.900879C152.701 0.900879 153.286 1.17773 153.744 1.73145C154.106 2.16895 154.287 2.78076 154.287 3.56689V12.1494C154.287 13.1064 154.12 13.8003 153.785 14.231C153.333 14.812 152.735 15.1025 151.99 15.1025C151.245 15.1025 150.63 14.7915 150.145 14.1694L146.463 9.47314V12.416C146.463 13.2295 146.296 13.8447 145.961 14.2617C145.51 14.8223 144.918 15.1025 144.187 15.1025C143.408 15.1025 142.792 14.8018 142.341 14.2002C142.013 13.7627 141.849 13.1064 141.849 12.2314V3.38232C141.849 2.63721 142.064 2.03906 142.495 1.58789C142.933 1.12988 143.524 0.900879 144.269 0.900879C144.912 0.900879 145.482 1.20508 145.981 1.81348L149.663 6.3252ZM164.797 10.2114H164.131C163.276 10.2114 162.695 9.93799 162.388 9.39111C162.237 9.13135 162.162 8.84424 162.162 8.52979C162.162 7.96924 162.381 7.53174 162.818 7.21729C163.146 6.97803 163.673 6.8584 164.397 6.8584C165.553 6.8584 166.223 6.86523 166.407 6.87891C167.296 6.94043 167.911 7.11475 168.253 7.40186C168.772 7.83936 169.032 8.58105 169.032 9.62695C169.032 10.4268 169.015 11.124 168.981 11.7188C168.933 12.5801 168.396 13.3628 167.371 14.0669C166.1 14.9419 164.719 15.3794 163.229 15.3794C161.438 15.3794 159.858 14.812 158.491 13.6772C157.657 12.98 157.004 12.1323 156.533 11.1343C156.061 10.1294 155.825 9.0835 155.825 7.99658C155.825 6.58838 156.194 5.28955 156.933 4.1001C157.671 2.90381 158.669 2.00146 159.927 1.39307C160.986 0.880371 162.08 0.624023 163.208 0.624023C164.63 0.624023 165.942 1.00342 167.146 1.76221C168.109 2.37061 168.591 3.09863 168.591 3.94629C168.591 4.58887 168.362 5.13916 167.904 5.59717C167.446 6.04834 166.896 6.27393 166.253 6.27393C165.987 6.27393 165.433 6.06543 164.592 5.64844C164.086 5.39551 163.601 5.26904 163.136 5.26904C162.412 5.26904 161.793 5.54248 161.28 6.08936C160.768 6.62939 160.511 7.26514 160.511 7.99658C160.511 8.75537 160.771 9.40137 161.291 9.93457C161.817 10.4609 162.459 10.7241 163.218 10.7241C163.704 10.7241 164.23 10.5532 164.797 10.2114ZM172.19 15C172.156 14.9863 171.893 14.9316 171.401 14.8359C171.107 14.7744 170.885 14.6855 170.734 14.5693C170.174 14.1455 169.894 13.5645 169.894 12.8262C169.894 12.3408 170.041 11.8896 170.334 11.4727L174.662 5.28955H172.17C171.514 5.28955 170.974 5.10156 170.55 4.72559C170.099 4.3291 169.873 3.80615 169.873 3.15674C169.873 2.4458 170.119 1.90234 170.611 1.52637C171.056 1.17773 171.644 1.00342 172.375 1.00342H178.558C179.385 1.00342 180.038 1.15039 180.517 1.44434C181.111 1.80664 181.409 2.37402 181.409 3.14648C181.409 3.59766 181.19 4.13428 180.752 4.75635L176.6 10.6421H178.917C179.45 10.6421 179.86 10.6865 180.147 10.7754C180.387 10.8438 180.612 10.9565 180.824 11.1138C181.398 11.5376 181.686 12.1118 181.686 12.8364C181.686 13.5542 181.422 14.1216 180.896 14.5386C180.739 14.6753 180.493 14.8325 180.158 15.0103L172.19 15Z" fill="#F0A519"/>
</svg>
