<svg width="185" height="29" viewBox="0 0 185 29" fill="none" xmlns="http://www.w3.org/2000/svg">
<path d="M9.67976 20.5195V23.1172C9.67976 24.5625 9.32169 25.7474 8.60555 26.6719C7.8243 27.6875 6.73055 28.1953 5.3243 28.1953C3.72273 28.1953 2.49877 27.5247 1.65242 26.1836C1.2618 25.5716 1.02742 24.901 0.949295 24.1719C0.910233 23.8724 0.890701 23.1432 0.890701 21.9844V6.41797C0.890701 4.73828 1.29435 3.48828 2.10164 2.66797C2.97403 1.78255 4.16544 1.33984 5.67586 1.33984H9.3868C11.7436 1.33984 13.4558 1.5026 14.5235 1.82812C16.5417 2.4401 18.1693 3.58594 19.4063 5.26562C20.6563 6.94531 21.2813 8.83984 21.2813 10.9492C21.2813 12.9284 20.7149 14.7383 19.5821 16.3789C17.668 19.1393 14.8751 20.5195 11.2032 20.5195H9.67976ZM32.4923 19.7578H36.8087C38.1368 19.7578 39.185 20.0312 39.9532 20.5781C41.073 21.3854 41.6329 22.4792 41.6329 23.8594C41.6329 25.1094 41.1772 26.151 40.2657 26.9844C39.5365 27.6615 38.4493 28 37.004 28H28.6251C26.9845 28 25.741 27.5378 24.8946 26.6133C24.2826 25.9362 23.905 25.0703 23.7618 24.0156C23.7227 23.6771 23.7032 22.707 23.7032 21.1055V6.06641C23.7032 4.64714 24.0743 3.48828 24.8165 2.58984C25.6108 1.6263 26.698 1.14453 28.0782 1.14453C29.5365 1.14453 30.6759 1.67839 31.4962 2.74609C32.1602 3.60547 32.4923 5.07031 32.4923 7.14062V19.7578ZM50.8712 24.543C50.4545 25.5326 50.0248 26.2682 49.5821 26.75C48.6967 27.7135 47.6225 28.1953 46.3595 28.1953C44.81 28.1953 43.6055 27.5703 42.7462 26.3203C42.2384 25.5781 41.9845 24.7448 41.9845 23.8203C41.9845 23.0521 42.1667 22.2773 42.5313 21.4961L50.8712 3.74219C51.6785 2.01042 53.0261 1.14453 54.9141 1.14453C56.8282 1.14453 58.2019 2.03646 59.0352 3.82031L67.4532 21.7109C67.7917 22.4271 67.961 23.1367 67.961 23.8398C67.961 24.8815 67.6225 25.806 66.9454 26.6133C66.06 27.668 64.9272 28.1953 63.547 28.1953C62.4141 28.1953 61.4701 27.8438 60.7149 27.1406C60.155 26.6198 59.5951 25.7539 59.0352 24.543H50.8712ZM81.5352 16.8867V22.7852C81.5352 24.2695 81.3009 25.3828 80.8321 26.125C79.9597 27.5052 78.7162 28.1953 77.1016 28.1953C75.5391 28.1953 74.3217 27.5182 73.4493 26.1641C72.9675 25.4089 72.7266 24.276 72.7266 22.7656V16.8867L66.7501 8.09766C66.1641 7.23828 65.8712 6.33984 65.8712 5.40234C65.8712 4.42578 66.1967 3.54036 66.8477 2.74609C67.7201 1.67839 68.8529 1.14453 70.2462 1.14453C71.8738 1.14453 73.1563 1.83464 74.0938 3.21484L77.1993 7.76562L80.461 3.09766C81.3725 1.79557 82.616 1.14453 84.1915 1.14453C85.3894 1.14453 86.418 1.57422 87.2774 2.43359C88.1498 3.27995 88.586 4.30208 88.586 5.5C88.586 6.39844 88.3061 7.24479 87.7462 8.03906L81.5352 16.8867ZM98.7423 19.7578H103.059C104.387 19.7578 105.435 20.0312 106.203 20.5781C107.323 21.3854 107.883 22.4792 107.883 23.8594C107.883 25.1094 107.427 26.151 106.516 26.9844C105.787 27.6615 104.699 28 103.254 28H94.8751C93.2345 28 91.991 27.5378 91.1446 26.6133C90.5326 25.9362 90.155 25.0703 90.0118 24.0156C89.9727 23.6771 89.9532 22.707 89.9532 21.1055V6.06641C89.9532 4.64714 90.3243 3.48828 91.0665 2.58984C91.8608 1.6263 92.948 1.14453 94.3282 1.14453C95.7865 1.14453 96.9259 1.67839 97.7462 2.74609C98.4102 3.60547 98.7423 5.07031 98.7423 7.14062V19.7578ZM118.156 6.59375V23.1367C118.156 24.569 117.785 25.7474 117.043 26.6719C116.249 27.6875 115.149 28.1953 113.742 28.1953C112.453 28.1953 111.366 27.7201 110.481 26.7695C109.738 25.9753 109.367 24.7643 109.367 23.1367V6.59375C109.367 4.74479 109.738 3.40365 110.481 2.57031C111.327 1.61979 112.414 1.14453 113.742 1.14453C115.07 1.14453 116.158 1.61328 117.004 2.55078C117.772 3.41016 118.156 4.75781 118.156 6.59375ZM125.109 17.9219C126.086 17.9219 127.128 18.3516 128.234 19.2109C129.615 20.2917 130.559 20.832 131.066 20.832C131.822 20.832 132.199 20.4414 132.199 19.6602C132.199 19.2305 131.978 18.8659 131.535 18.5664C131.301 18.4102 129.986 17.9089 127.59 17.0625C123.671 15.6823 121.711 13.1302 121.711 9.40625C121.711 6.59375 122.746 4.3737 124.816 2.74609C126.626 1.32682 128.866 0.617188 131.535 0.617188C133.84 0.617188 135.845 1.17057 137.551 2.27734C139.257 3.37109 140.109 4.78385 140.109 6.51562C140.109 7.55729 139.784 8.42969 139.133 9.13281C138.495 9.82292 137.662 10.168 136.633 10.168C135.552 10.168 134.354 9.65365 133.039 8.625C132.219 7.98698 131.6 7.66797 131.184 7.66797C130.468 7.66797 130.109 8.01953 130.109 8.72266C130.109 9.38672 130.995 9.99219 132.766 10.5391C135.214 11.3073 137.108 12.2448 138.449 13.3516C140.233 14.8359 141.125 16.9193 141.125 19.6016C141.125 22.5182 140.122 24.7969 138.117 26.4375C136.255 27.9609 133.833 28.7227 130.852 28.7227C127.87 28.7227 125.402 27.9284 123.449 26.3398C121.887 25.0768 121.106 23.599 121.106 21.9062C121.106 20.7734 121.49 19.8294 122.258 19.0742C123.026 18.319 123.977 17.9349 125.109 17.9219ZM148.625 9.52344H146.301C145.012 9.52344 143.944 9.17188 143.098 8.46875C142.199 7.71354 141.75 6.70443 141.75 5.44141C141.75 4.6862 141.958 3.96354 142.375 3.27344C142.805 2.57031 143.352 2.07552 144.016 1.78906C144.693 1.48958 146.288 1.33984 148.801 1.33984H157.668C159.843 1.33984 161.249 1.47005 161.887 1.73047C162.59 2.01693 163.156 2.51172 163.586 3.21484C164.029 3.90495 164.25 4.63411 164.25 5.40234C164.25 6.61328 163.768 7.66797 162.805 8.56641C162.115 9.20443 160.988 9.52344 159.426 9.52344H157.414V22.8047C157.414 24.25 157.167 25.3698 156.672 26.1641C155.839 27.4922 154.634 28.1562 153.059 28.1562C151.483 28.1562 150.272 27.5508 149.426 26.3398C148.892 25.5846 148.625 24.4388 148.625 22.9023V9.52344ZM168.859 17.9219C169.836 17.9219 170.878 18.3516 171.984 19.2109C173.365 20.2917 174.309 20.832 174.816 20.832C175.572 20.832 175.949 20.4414 175.949 19.6602C175.949 19.2305 175.728 18.8659 175.285 18.5664C175.051 18.4102 173.736 17.9089 171.34 17.0625C167.421 15.6823 165.461 13.1302 165.461 9.40625C165.461 6.59375 166.496 4.3737 168.566 2.74609C170.376 1.32682 172.616 0.617188 175.285 0.617188C177.59 0.617188 179.595 1.17057 181.301 2.27734C183.007 3.37109 183.859 4.78385 183.859 6.51562C183.859 7.55729 183.534 8.42969 182.883 9.13281C182.245 9.82292 181.412 10.168 180.383 10.168C179.302 10.168 178.104 9.65365 176.789 8.625C175.969 7.98698 175.35 7.66797 174.934 7.66797C174.218 7.66797 173.859 8.01953 173.859 8.72266C173.859 9.38672 174.745 9.99219 176.516 10.5391C178.964 11.3073 180.858 12.2448 182.199 13.3516C183.983 14.8359 184.875 16.9193 184.875 19.6016C184.875 22.5182 183.872 24.7969 181.867 26.4375C180.005 27.9609 177.583 28.7227 174.602 28.7227C171.62 28.7227 169.152 27.9284 167.199 26.3398C165.637 25.0768 164.856 23.599 164.856 21.9062C164.856 20.7734 165.24 19.8294 166.008 19.0742C166.776 18.319 167.727 17.9349 168.859 17.9219Z" fill="#481121"/>
</svg>
